<?xml version="1.0" standalone="no"?>
<!DOCTYPE svg PUBLIC "-//W3C//DTD SVG 20010904//EN"
 "http://www.w3.org/TR/2001/REC-SVG-20010904/DTD/svg10.dtd">
<svg version="1.0" xmlns="http://www.w3.org/2000/svg"
 width="1024.000000pt" height="1024.000000pt" viewBox="0 0 1024.000000 1024.000000"
 preserveAspectRatio="xMidYMid meet">

<g transform="translate(0.000000,1024.000000) scale(0.100000,-0.100000)"
fill="#000000" stroke="none">
<path d="M6960 9290 c444 -4 283 -6 -805 -10 l-1360 -4 1405 -6 c1014 -5 1424
-10 1475 -18 217 -37 384 -91 565 -183 506 -258 830 -733 921 -1353 18 -123
18 -227 19 -2530 1 -2089 -1 -2414 -14 -2498 -63 -404 -250 -770 -529 -1034
-242 -229 -507 -365 -862 -441 l-130 -28 -2450 -3 c-1742 -2 -2482 0 -2560 8
-286 29 -565 129 -812 292 -159 104 -360 309 -476 484 -140 211 -230 439 -273
695 -17 97 -19 270 -24 2544 -3 1342 -6 2069 -8 1616 -1 -481 -6 -821 -11
-815 -5 5 -12 20 -16 34 -5 19 -4 21 4 10 9 -12 11 -11 11 8 0 12 -4 22 -10
22 -5 0 -11 52 -13 123 -1 67 -2 -695 -2 -1693 1 -1357 5 -1830 14 -1875 106
-536 371 -953 780 -1227 207 -139 386 -212 676 -276 l120 -26 2460 -4 c1754
-2 2489 0 2560 8 125 14 343 63 455 102 260 92 539 281 710 481 239 278 390
611 442 972 19 132 19 4833 0 4980 -60 465 -219 822 -492 1109 -256 268 -587
445 -965 518 -104 20 -144 21 -735 22 l-625 2 555 -6z m-5920 -3384 c-1 -61
-3 -77 -11 -63 -6 10 -8 36 -5 58 3 22 2 38 -2 35 -5 -3 -9 14 -11 36 -2 36 0
40 13 28 12 -9 16 -32 16 -94z m-3 -106 c-1 -21 -10 -18 -13 5 -1 8 2 15 6 15
5 0 8 -9 7 -20z"/>
<path d="M4483 9273 c48 -2 126 -2 175 0 48 1 8 3 -88 3 -96 0 -136 -2 -87 -3z"/>
<path d="M7678 9183 c7 -3 16 -2 19 1 4 3 -2 6 -13 5 -11 0 -14 -3 -6 -6z"/>
<path d="M7718 9173 c6 -2 18 -2 25 0 6 3 1 5 -13 5 -14 0 -19 -2 -12 -5z"/>
<path d="M7850 9144 c47 -13 89 -23 94 -21 11 4 -146 47 -165 46 -8 0 24 -12
71 -25z"/>
<path d="M7961 9116 c2 -2 63 -27 134 -55 127 -51 160 -72 151 -98 -4 -9 1
-10 18 -3 31 12 66 -12 59 -40 -3 -11 -10 -20 -16 -20 -6 0 -2 -7 9 -16 10 -8
13 -13 7 -9 -18 9 -16 0 4 -20 9 -10 12 -20 7 -23 -11 -8 -12 -32 -1 -32 29 0
31 1 22 8 -12 8 -17 62 -6 62 10 0 31 -22 31 -33 0 -4 -6 -5 -12 -1 -7 4 -2
-5 11 -19 17 -19 20 -27 10 -27 -10 0 -10 -3 -3 -8 11 -7 18 -32 15 -59 0 -7
-9 -13 -18 -13 -15 0 -15 1 -1 13 11 8 13 18 8 32 -6 14 -9 16 -10 5 -2 -8 -2
-19 -1 -23 1 -4 -8 -3 -19 3 -24 13 -30 3 -27 -45 2 -23 7 -30 22 -30 11 -1
22 3 25 7 3 4 11 -2 18 -12 10 -16 10 -20 -1 -20 -7 0 -18 5 -25 12 -7 7 -12
8 -12 2 0 -13 -36 -13 -38 1 0 5 -3 20 -5 31 -3 12 1 34 9 49 17 33 17 35 3
35 -5 0 -7 -4 -4 -10 3 -5 -1 -10 -9 -10 -9 0 -16 -9 -16 -21 0 -12 -4 -17
-11 -14 -6 4 -9 0 -7 -11 2 -10 -2 -19 -9 -19 -21 0 -37 -22 -22 -30 8 -6 10
-4 4 6 -6 11 -5 12 5 2 20 -19 11 -22 -68 -24 -39 -1 -69 -6 -66 -11 3 -5 11
-8 17 -7 7 1 28 -5 47 -14 43 -20 27 -22 -26 -3 -129 45 -294 19 -464 -72
-142 -77 -216 -135 -390 -311 -96 -97 -179 -175 -184 -173 -5 2 -6 -4 -3 -12
8 -20 -11 -33 -56 -40 -29 -5 -36 -3 -31 6 6 10 5 10 -7 1 -8 -7 -20 -8 -27
-4 -8 4 -23 6 -35 4 -35 -6 -48 10 -57 68 l-8 54 -1 -48 c-1 -36 10 -76 39
-148 39 -96 39 -101 23 -125 -12 -19 -18 -22 -24 -12 -6 9 -8 7 -8 -7 1 -11
-2 -31 -6 -45 l-7 -25 21 25 c11 14 21 28 21 32 0 6 70 101 159 217 99 130
291 330 386 402 208 158 383 227 548 216 107 -7 168 -31 235 -92 111 -100 137
-173 136 -370 -1 -168 -10 -218 -76 -445 -67 -231 -219 -647 -191 -525 3 17
24 76 45 132 21 56 38 107 38 112 0 6 4 19 9 29 17 33 61 157 67 192 4 19 10
40 14 45 8 11 53 189 71 282 7 39 10 116 7 200 -4 127 -7 143 -33 196 -53 107
-170 185 -290 193 -43 3 -45 2 -14 -5 59 -12 104 -71 128 -168 25 -97 26 -170
7 -273 -17 -85 -55 -214 -62 -207 -2 2 0 17 6 32 14 37 50 200 49 222 -1 18
-15 -22 -23 -67 -13 -70 -18 -87 -32 -108 -9 -13 -13 -26 -10 -30 3 -3 -1 -16
-9 -29 -9 -13 -13 -23 -9 -23 4 0 1 -7 -6 -15 -7 -8 -9 -15 -5 -15 4 0 2 -7
-5 -15 -7 -8 -9 -15 -6 -15 4 0 0 -7 -8 -16 -9 -8 -16 -23 -16 -33 0 -9 -6
-23 -12 -30 -11 -11 -10 -12 2 -6 13 7 13 6 -1 -11 -8 -10 -21 -30 -28 -44 -6
-14 -20 -40 -30 -59 -10 -18 -16 -45 -13 -59 3 -17 1 -23 -7 -18 -7 5 -11 0
-11 -13 0 -12 -4 -21 -10 -21 -5 0 -10 -5 -10 -11 0 -5 4 -7 10 -4 6 3 7 -1 4
-9 -3 -9 -10 -16 -15 -16 -5 0 -9 -6 -9 -13 0 -14 -35 -47 -44 -41 -3 2 -4 1
-1 -3 3 -3 -1 -13 -7 -21 -7 -8 -13 -20 -13 -26 -1 -23 -27 -86 -34 -81 -8 4
-50 -68 -55 -96 -5 -22 -19 -53 -27 -59 -4 -3 -9 -12 -11 -20 -2 -8 -11 -23
-20 -34 -10 -11 -18 -26 -18 -33 0 -8 -4 -11 -10 -8 -6 4 -10 -7 -10 -24 0
-17 -4 -31 -9 -31 -12 0 -81 -102 -81 -119 0 -7 -10 -21 -21 -30 -12 -10 -21
-29 -21 -44 0 -14 -3 -25 -7 -24 -7 2 -32 -17 -71 -55 -16 -16 -33 -28 -38
-28 -6 0 -17 -8 -24 -17 -7 -10 -24 -25 -38 -33 -84 -51 -129 -81 -191 -128
-38 -28 -90 -62 -114 -73 -25 -12 -48 -25 -51 -30 -3 -5 -18 -9 -34 -9 -16 0
-32 -5 -35 -10 -4 -6 -11 -8 -16 -5 -5 4 -14 3 -21 -1 -7 -4 -32 -9 -58 -10
-61 -2 -164 -15 -169 -20 -2 -2 -10 1 -18 8 -11 9 -12 7 -7 -8 7 -19 7 -19
-14 0 -12 10 -19 22 -17 27 3 4 2 10 -3 13 -14 9 -11 -32 4 -44 7 -7 11 -16 8
-21 -3 -5 -1 -9 4 -9 23 0 44 -244 23 -252 -5 -1 -14 -27 -19 -56 -7 -41 -7
-52 3 -49 6 3 18 2 25 -3 9 -6 7 -9 -7 -14 -20 -7 -76 -81 -125 -166 -14 -25
-85 -124 -157 -220 -72 -96 -147 -204 -166 -240 -34 -62 -36 -63 -30 -26 9 55
74 185 147 293 16 23 28 46 27 50 -1 4 -1 24 0 43 1 25 4 31 10 21 6 -9 5 -25
-1 -40 -12 -34 -2 -22 63 73 29 43 85 113 123 155 39 42 53 60 32 41 -36 -33
-38 -34 -31 -10 4 14 14 37 21 52 22 42 41 235 26 259 -7 10 -12 27 -12 36 0
28 -32 106 -53 131 -26 28 -8 29 22 1 15 -14 26 -18 32 -12 12 12 -43 40 -93
49 l-33 5 26 -15 c16 -9 38 -42 59 -87 31 -67 32 -76 26 -148 -3 -42 -13 -128
-22 -191 l-17 -115 -51 -60 c-28 -33 -61 -74 -73 -90 -12 -17 -23 -25 -23 -19
0 6 9 23 20 37 11 14 20 32 20 41 0 9 7 28 16 41 9 13 17 52 19 87 l4 63 -10
-65 c-11 -72 -28 -102 -31 -55 0 17 0 37 1 45 1 8 4 31 5 51 2 20 7 42 11 48
4 7 3 35 -1 64 l-7 52 -14 -80 c-7 -44 -11 -93 -8 -110 4 -22 3 -27 -6 -18 -9
9 -7 47 9 155 11 79 20 124 21 101 1 -24 5 -43 11 -43 10 0 12 7 28 90 7 36 9
24 6 -55 -2 -79 -1 -90 6 -55 5 25 9 78 9 118 1 58 -2 72 -14 72 -14 0 -20 27
-18 78 1 7 -2 11 -5 8 -3 -3 -11 -1 -19 5 -7 6 -13 8 -13 3 -1 -10 -29 37 -30
48 0 3 8 9 18 11 14 4 14 5 -3 7 -11 1 -37 21 -58 45 -37 42 -37 42 -23 83 8
22 13 42 10 44 -4 4 -12 44 -13 66 -1 6 -8 12 -16 12 -8 0 -15 2 -15 4 0 2 30
57 66 122 110 197 321 533 434 693 107 150 107 151 104 204 -3 60 -42 205 -44
167 -1 -15 -7 -2 -14 31 -7 30 -15 63 -19 72 -3 8 -1 18 6 21 8 3 8 5 1 5 -6
1 -34 -29 -62 -66 -125 -165 -369 -482 -394 -511 -29 -35 -73 -48 -47 -14 13
15 12 16 -3 4 -12 -10 -34 -12 -70 -8 l-53 5 52 -12 c28 -7 54 -15 58 -18 7
-8 -27 -218 -80 -499 -19 -102 -35 -189 -35 -193 0 -5 -4 -6 -9 -3 -5 4 -5 22
0 43 5 21 8 58 8 83 0 38 -2 41 -9 22 -8 -18 -14 -21 -27 -14 -22 10 -33 10
-52 -2 -21 -13 -115 -14 -123 -2 -5 7 -8 7 -8 -1 0 -7 -7 -10 -17 -6 -11 4
-14 3 -9 -5 5 -8 2 -10 -8 -6 -8 3 -21 2 -28 -2 -7 -5 -17 -9 -23 -9 -24 -1
-125 -36 -130 -45 -3 -6 -10 -10 -16 -10 -5 0 0 9 11 20 11 11 20 28 19 38 0
13 -2 12 -9 -6 -12 -29 -56 -50 -72 -34 -8 8 -15 7 -25 -4 -21 -20 -60 -17
-102 8 l-36 22 33 -31 c46 -44 43 -69 -8 -68 -31 0 -44 6 -57 25 -9 14 -23 29
-30 33 -7 4 -13 14 -13 22 0 81 -239 43 -301 -48 l-22 -32 29 26 c47 42 86 62
141 75 84 19 85 0 4 -74 -53 -48 -78 -80 -110 -144 -47 -93 -71 -172 -71 -235
0 -56 -25 -59 -34 -4 -3 22 -13 41 -22 45 -14 6 -16 18 -11 84 4 61 12 92 36
140 36 72 35 82 -3 18 -28 -48 -56 -143 -56 -190 0 -16 -12 -47 -26 -68 -54
-77 -39 -195 31 -257 37 -32 104 -48 152 -36 72 17 133 99 133 176 0 55 -34
124 -71 146 -35 21 -35 26 -8 99 14 38 39 76 75 112 l53 55 63 -6 c35 -3 114
-11 176 -17 l113 -12 48 45 c26 25 62 52 79 61 31 16 83 21 95 10 10 -10 -20
-59 -68 -114 -65 -73 -142 -238 -164 -350 -6 -34 -6 -33 -30 37 -23 69 -23 72
-8 142 9 39 26 89 37 111 11 22 18 40 15 40 -2 0 -16 -22 -29 -48 -29 -57 -56
-156 -56 -204 0 -23 -7 -42 -21 -54 -34 -30 -49 -69 -49 -124 0 -82 46 -144
125 -170 155 -51 299 146 201 275 -14 18 -35 37 -47 40 -19 6 -20 12 -15 47 4
22 13 52 21 67 19 34 19 24 0 -29 -8 -23 -15 -50 -14 -59 1 -9 7 3 14 27 20
61 54 122 94 165 19 20 31 37 26 37 -4 0 -28 -21 -53 -47 -27 -29 -37 -36 -25
-18 53 78 96 89 249 65 95 -15 139 -36 187 -89 53 -60 82 -137 81 -216 0 -33
-20 -197 -44 -365 l-43 -305 -44 -70 c-88 -138 -135 -246 -141 -321 l-5 -69
-132 -180 c-156 -213 -520 -716 -626 -865 -41 -58 -116 -161 -166 -230 -105
-147 -133 -197 -133 -243 0 -18 -5 -38 -11 -44 -7 -7 -7 -13 -1 -17 6 -3 14 4
18 16 11 36 26 44 74 40 25 -2 59 -4 75 -5 17 -1 32 -4 35 -7 3 -3 25 -15 50
-28 115 -57 153 -93 153 -143 0 -71 -69 -174 -207 -309 -53 -52 -96 -97 -96
-101 0 -37 169 68 289 180 30 28 57 51 61 51 4 0 17 11 30 25 12 13 27 22 31
19 5 -3 9 10 10 28 l1 33 8 -35 c6 -23 4 -42 -5 -60 -16 -31 -196 -182 -319
-268 -61 -43 -69 -55 -38 -57 15 -1 22 4 22 16 0 9 7 20 16 23 11 4 15 2 11
-7 -6 -15 44 -17 55 -2 4 6 11 10 15 10 4 1 18 6 29 13 12 6 24 8 28 5 3 -3 6
-1 6 5 0 7 9 12 20 12 10 0 23 6 27 12 4 7 27 30 50 50 23 20 39 39 35 42 -3
3 0 6 6 6 7 0 12 7 12 16 0 8 4 12 10 9 5 -3 30 15 55 40 45 47 56 63 33 49
-9 -5 -9 -2 1 9 7 9 10 17 7 17 -4 0 5 17 20 38 l26 37 -33 -36 c-35 -36 -69
-65 -69 -57 0 2 15 21 34 41 19 21 87 108 152 195 104 138 172 232 415 567 28
39 49 64 48 58 -2 -7 -50 -78 -107 -157 l-102 -145 -11 -83 c-5 -46 -12 -90
-14 -98 -2 -8 -14 -89 -25 -180 -29 -232 -128 -868 -142 -910 -28 -90 -123
-191 -215 -231 -96 -41 -147 -38 -648 45 -253 42 -667 110 -920 152 -1635 265
-1837 300 -1893 324 -25 11 -47 18 -50 15 -9 -9 93 -47 163 -60 39 -7 153 -27
255 -44 694 -114 1222 -201 1260 -206 25 -3 137 -21 250 -40 113 -19 426 -71
695 -115 419 -69 546 -89 715 -114 42 -7 142 13 195 39 59 28 143 107 178 168
29 49 39 88 62 237 33 223 38 247 47 215 4 -15 4 -33 1 -38 -3 -6 -1 -7 5 -3
6 4 11 19 10 34 -1 30 8 81 17 90 3 3 5 -1 5 -9 0 -28 -61 -397 -81 -488 -11
-51 -18 -96 -15 -98 13 -13 77 340 141 782 37 254 76 457 92 476 7 8 13 20 13
26 0 6 11 27 25 47 13 20 29 58 34 84 16 82 12 3 -9 -183 -32 -281 -97 -732
-157 -1080 -20 -115 -37 -220 -37 -232 -1 -12 -3 -20 -5 -17 -2 2 -16 -16 -31
-39 -37 -59 -103 -113 -169 -138 -80 -30 -224 -22 -511 31 -124 22 -279 49
-345 59 -66 11 -291 48 -500 84 -209 36 -510 86 -670 112 -159 26 -544 90
-855 142 -613 104 -652 110 -570 88 43 -12 723 -128 1190 -204 324 -53 894
-148 1060 -177 113 -19 309 -52 435 -74 127 -21 298 -51 380 -66 202 -36 328
-37 406 -1 70 32 115 69 151 126 15 25 28 41 28 36 0 -20 -65 -107 -105 -139
-128 -105 -184 -105 -785 -3 -245 42 -575 98 -735 125 -159 28 -378 64 -485
82 -490 79 -1124 184 -1315 216 -115 20 -226 38 -245 40 -70 7 89 -26 270 -56
332 -55 899 -148 1190 -195 157 -25 416 -69 575 -96 1327 -229 1331 -230 1450
-175 147 67 199 150 240 381 80 450 235 1529 235 1636 0 39 24 80 116 205 88
117 84 113 77 87 -3 -13 -9 -23 -14 -23 -5 0 -12 -18 -15 -40 -4 -22 -10 -40
-14 -40 -4 0 -10 -39 -14 -87 -8 -101 -10 -122 -72 -573 -136 -1002 -187
-1328 -219 -1421 -35 -99 -110 -185 -200 -230 -45 -22 -62 -24 -170 -23 -104
1 -207 16 -750 108 -346 59 -646 109 -665 112 l-35 4 35 -10 c19 -5 105 -21
190 -35 85 -14 202 -34 260 -45 58 -11 161 -28 230 -39 69 -11 235 -39 370
-62 195 -34 271 -43 370 -43 124 -1 126 -1 188 33 110 60 185 176 222 343 l20
93 -5 -70 c-3 -38 -4 -67 -1 -65 7 8 37 223 31 228 -3 3 -5 -5 -5 -18 0 -13
-3 -21 -6 -17 -3 3 4 81 17 174 13 92 25 157 27 144 2 -13 -1 -51 -7 -85 -6
-35 -11 -76 -10 -92 1 -16 23 122 50 306 29 199 47 355 45 385 -3 28 -1 73 3
100 l8 50 3 -40 c2 -30 6 -18 16 50 34 232 55 406 49 414 -3 5 -1 12 4 15 4 3
11 34 15 68 16 138 18 153 23 158 8 7 -1 -78 -47 -425 -114 -868 -196 -1431
-218 -1495 -47 -136 -111 -212 -228 -270 -68 -34 -71 -35 -189 -34 -96 1 -179
11 -420 53 -165 28 -403 69 -530 91 -126 21 -324 55 -440 75 -115 20 -545 92
-955 161 -1091 183 -1014 165 -1082 248 -24 28 -70 78 -103 111 -60 61 -112
149 -120 202 -2 15 -11 42 -19 59 -24 46 -39 141 -31 193 3 25 19 100 35 166
84 346 174 721 215 890 25 105 57 240 71 302 l25 112 -96 408 c-149 629 -202
860 -220 954 l-17 87 -40 6 c-101 16 -130 45 -160 159 -13 53 -17 60 -13 27
11 -89 32 -134 77 -163 23 -15 58 -30 77 -34 34 -6 35 -7 11 -14 -24 -7 -24
-7 -4 -14 17 -5 25 -21 35 -68 8 -41 15 -55 19 -42 5 13 10 2 18 -36 17 -82
162 -699 253 -1078 17 -72 27 -138 24 -155 -4 -24 -3 -27 4 -11 8 16 10 13 10
-20 2 -50 -99 -476 -111 -469 -4 3 -5 -2 -2 -10 6 -16 -36 -209 -44 -201 -3 3
2 31 33 170 3 11 -1 8 -8 -8 -7 -15 -15 -26 -18 -23 -2 2 -5 -8 -7 -22 -5 -56
-7 -67 -15 -73 -5 -4 -9 -24 -9 -45 0 -22 -8 -56 -18 -77 -10 -20 -14 -35 -9
-31 5 3 9 -2 9 -10 0 -9 -5 -16 -12 -16 -6 0 -9 -3 -5 -6 8 -8 -13 -65 -22
-59 -4 2 -8 -2 -8 -10 0 -8 5 -12 11 -9 6 3 3 -1 -6 -9 -10 -8 -18 -25 -18
-39 0 -13 -6 -30 -12 -37 -11 -11 -11 -13 0 -7 15 9 16 -10 1 -19 -6 -4 -8
-14 -5 -22 8 -19 -4 -39 -14 -24 -4 7 -7 -4 -8 -24 -1 -24 2 -34 10 -29 7 4 8
3 4 -5 -4 -6 -12 -8 -18 -5 -6 4 -8 -2 -3 -17 5 -18 4 -21 -4 -9 -6 8 -8 24
-5 35 4 16 3 17 -5 5 -6 -8 -8 -25 -4 -37 3 -14 1 -23 -7 -23 -6 0 -8 -5 -3
-13 11 -18 4 -49 -15 -64 -10 -7 -12 -12 -5 -13 7 0 10 -9 7 -23 -7 -31 -12
-51 -14 -57 -1 -3 -2 -12 -1 -22 1 -9 -3 -19 -9 -23 -7 -4 -7 -13 1 -27 8 -15
8 -19 0 -14 -6 4 -12 2 -12 -3 -3 -21 -4 -26 -13 -39 -4 -7 -9 -30 -10 -50 -1
-21 -5 -43 -10 -50 -4 -7 -2 -12 4 -12 15 0 8 -32 -10 -46 -12 -10 -12 -14 -1
-28 9 -11 10 -16 2 -16 -8 0 -9 -5 -1 -19 12 -24 13 -34 1 -27 -5 3 -11 -1
-15 -9 -3 -8 0 -15 7 -15 7 0 8 -3 2 -8 -14 -10 -15 -42 -2 -39 6 1 13 -6 15
-17 3 -13 0 -16 -10 -10 -7 4 -5 -2 5 -13 20 -23 22 -39 5 -46 -7 -3 -3 -6 10
-6 13 -1 21 -5 18 -10 -4 -5 0 -12 6 -14 8 -3 6 -6 -5 -6 -10 -1 -15 -6 -12
-11 4 -6 10 -8 14 -6 4 3 13 0 21 -6 12 -8 12 -9 -2 -4 -21 6 -23 -4 -6 -23
11 -11 9 -11 -10 -2 l-23 12 16 -31 c9 -18 12 -29 6 -26 -6 4 -11 3 -11 -3 0
-5 5 -13 11 -16 6 -5 4 -12 -8 -20 -10 -7 -21 -11 -25 -9 -4 3 -6 -1 -3 -8 15
-43 13 -68 -8 -85 -12 -10 -28 -30 -36 -45 -14 -27 -14 -27 -32 -7 -22 25 -20
25 -45 11 -16 -9 -21 -8 -21 4 0 8 5 14 11 13 6 -1 22 -1 35 0 20 1 21 3 11
16 -7 8 -17 12 -22 9 -6 -4 -7 2 -3 17 7 21 6 22 -8 11 -10 -9 -25 -11 -39 -6
-23 7 -23 6 -4 -15 11 -11 14 -21 8 -21 -7 0 -12 5 -12 11 0 5 -4 8 -9 5 -5
-3 -11 3 -14 14 -3 13 -14 20 -30 20 -31 0 -44 -17 -27 -33 10 -9 11 -9 6 0
-9 16 13 28 27 14 6 -6 8 -13 5 -17 -11 -11 -87 -14 -93 -4 -4 6 -11 7 -17 4
-6 -4 -8 -2 -5 4 4 5 16 8 26 5 10 -3 22 0 25 6 7 10 -14 16 -38 12 -5 -1 -13
4 -17 11 -6 9 -9 3 -9 -17 -1 -29 -2 -29 -11 -7 -5 13 -14 20 -19 17 -6 -4
-18 -1 -27 7 -12 9 -14 9 -9 1 4 -7 2 -22 -5 -34 -8 -16 -8 -20 1 -14 7 4 6
-4 -4 -22 -15 -30 -45 -41 -42 -17 3 22 16 29 16 8 0 -15 2 -16 9 -5 6 9 5 19
-2 26 -9 9 -14 10 -19 2 -4 -7 -12 0 -19 16 -7 15 -19 27 -28 27 -14 0 -14 2
-1 10 20 13 4 13 -21 0 -14 -8 -19 -7 -19 2 0 10 -2 10 -9 0 -6 -10 -10 -7
-15 12 -3 14 -11 26 -17 26 -6 0 -7 -4 -4 -10 3 -5 -1 -10 -9 -10 -21 0 -20
14 1 36 17 16 16 17 -18 10 -29 -5 -39 -2 -55 17 -11 13 -19 29 -17 37 2 8 -1
7 -8 -4 -9 -14 -9 -20 1 -26 9 -5 9 -9 1 -14 -6 -4 -11 -3 -11 3 0 6 -6 9 -12
7 -7 -1 -9 -1 -5 2 4 2 2 11 -5 20 -10 12 -10 16 0 19 15 6 16 30 2 35 -6 2
-12 13 -13 25 0 12 -5 19 -10 16 -4 -3 -15 3 -23 13 -14 18 -14 18 -4 -3 11
-23 -2 -34 -15 -13 -4 6 -10 8 -14 6 -4 -3 -8 16 -10 41 -3 55 -5 59 -29 65
-17 5 -19 0 -17 -40 2 -34 0 -40 -8 -26 -6 10 -13 90 -17 178 l-7 161 -1 -131
c-6 -439 167 -859 487 -1187 207 -212 451 -356 740 -436 239 -67 40 -62 2731
-68 2207 -4 2456 -3 2558 11 390 55 718 210 971 459 254 250 404 528 489 908
l27 124 0 2415 c0 2618 3 2493 -55 2729 -83 341 -221 593 -444 816 -139 138
-267 233 -412 305 -103 51 -274 116 -253 96z m424 -216 c16 -17 16 -20 3 -15
-9 4 -19 13 -22 21 -7 19 -2 18 19 -6z m0 -30 c3 -5 1 -10 -4 -10 -6 0 -11 5
-11 10 0 6 2 10 4 10 3 0 8 -4 11 -10z m-18 -153 c-1 -7 10 -12 24 -12 17 1
25 -4 22 -12 -3 -7 -15 -11 -26 -9 -12 3 -27 5 -32 5 -6 1 -12 12 -13 26 -1
18 2 23 13 19 8 -3 13 -11 12 -17z m96 -6 c21 11 21 10 5 -6 -17 -18 -39 -13
-37 8 0 9 2 9 6 0 3 -10 10 -10 26 -2z m-187 -153 l19 -23 -25 20 c-14 11 -27
21 -29 22 -2 2 0 3 6 3 5 0 18 -10 29 -22z m-1186 -583 c-7 -9 -15 -13 -17
-11 -7 7 7 26 19 26 6 0 6 -6 -2 -15z m1039 -134 c-7 -23 -14 -39 -16 -37 -3
2 1 23 8 45 7 23 14 39 16 37 3 -2 -1 -23 -8 -45z m-1252 7 c-3 -7 -5 -2 -5
12 0 14 2 19 5 13 2 -7 2 -19 0 -25z m1208 -128 c-13 -36 -24 -60 -24 -53 -1
16 40 126 44 121 2 -2 -7 -33 -20 -68z m549 -185 c8 -19 22 -35 30 -35 9 0 16
-4 16 -10 0 -5 -6 -10 -14 -10 -8 0 -20 -16 -27 -35 l-13 -34 -17 29 c-11 18
-28 30 -46 32 -25 4 -26 5 -8 13 35 14 55 37 55 62 0 32 7 29 24 -12z m-668
-92 c-8 -15 -15 -25 -16 -21 0 12 23 58 27 54 3 -2 -2 -17 -11 -33z m-30 -70
c-8 -15 -15 -25 -16 -21 0 12 23 58 27 54 3 -2 -2 -17 -11 -33z m-35 -80 c-12
-20 -14 -14 -5 12 4 9 9 14 11 11 3 -2 0 -13 -6 -23z m432 -195 c163 -57 217
-108 217 -208 0 -64 -34 -356 -55 -481 -27 -155 -40 -184 -98 -229 -121 -93
-125 -98 -132 -142 -4 -24 -29 -137 -55 -253 -225 -994 -382 -1640 -416 -1711
-27 -57 -68 -91 -669 -560 -331 -258 -357 -274 -449 -274 -64 0 -196 21 -196
31 0 3 18 3 40 -1 22 -4 40 -3 40 1 0 5 -4 9 -10 9 -5 0 -12 11 -16 25 -4 18
-13 25 -33 26 -14 1 -3 5 24 10 68 11 140 44 164 75 26 33 33 69 87 437 24
172 60 418 79 547 19 129 39 259 45 289 17 91 14 95 -32 45 -23 -25 -54 -52
-69 -60 -43 -22 -48 -16 -7 9 77 47 333 409 438 621 90 182 103 287 49 396
l-32 63 17 46 c37 103 10 186 -79 250 -45 33 -55 36 -120 36 -79 0 -91 -6
-165 -90 l-46 -50 -39 12 -40 11 35 2 c19 1 28 4 18 7 -10 2 -21 23 -28 54 -7
27 -19 56 -27 64 -13 13 -12 15 8 15 34 0 17 10 -32 18 l-44 8 -11 79 c-6 44
-14 88 -19 98 -7 16 -5 18 11 8 19 -10 313 -41 391 -41 52 0 134 42 583 298
467 266 610 353 610 373 0 8 -81 50 -122 63 -12 3 -16 11 -12 23 18 56 28 73
43 73 14 0 14 2 1 11 -26 18 57 0 153 -33z m-633 -208 c-6 -11 -13 -20 -16
-20 -2 0 0 9 6 20 6 11 13 20 16 20 2 0 0 -9 -6 -20z m1106 1 c-2 -3 2 -12 10
-19 8 -7 14 -10 14 -6 0 4 9 -3 20 -16 20 -23 20 -23 0 -37 -15 -11 -17 -18
-10 -38 10 -26 4 -55 -11 -55 -5 0 -9 -7 -9 -15 0 -8 -7 -15 -16 -15 -8 0 -12
-4 -9 -10 3 -5 2 -10 -4 -10 -5 0 -16 -3 -25 -6 -12 -4 -16 0 -17 17 -1 21 -2
21 -6 4 -9 -35 -23 -41 -24 -9 0 25 -2 26 -9 9 -5 -11 -9 -14 -9 -6 -1 8 -7
11 -18 7 -10 -4 -14 -4 -10 0 4 4 -5 16 -20 26 -16 10 -23 18 -18 18 6 0 5 4
-1 8 -7 4 -13 18 -14 32 -3 30 19 92 30 85 4 -3 10 2 14 10 3 8 12 15 21 15 8
0 15 3 15 8 0 4 11 8 26 8 23 2 24 1 7 -13 -10 -8 -3 -6 16 5 31 18 67 20 57
3z m-239 -138 c-3 -10 -5 -2 -5 17 0 19 2 27 5 18 2 -10 2 -26 0 -35z m-2830
11 c-3 -3 -12 -4 -19 -1 -8 3 -5 6 6 6 11 1 17 -2 13 -5z m413 -19 c45 -23 78
-64 83 -103 2 -20 4 -38 3 -39 -1 -1 -24 4 -51 12 -41 11 -55 21 -22 16 4 0 7
6 7 15 0 8 -4 13 -9 10 -10 -6 -101 90 -101 106 0 11 54 1 90 -17z m307 -467
c-2 -18 -4 -6 -4 27 0 33 2 48 4 33 2 -15 2 -42 0 -60z m-1143 -19 c2 -19 -3
-49 -11 -66 -15 -33 -78 -81 -90 -69 -4 3 -1 6 5 6 19 0 72 58 72 80 0 11 4
20 8 20 4 0 6 17 4 38 -3 20 -2 34 2 31 3 -3 8 -21 10 -40z m1293 -71 c-3 -8
-6 -5 -6 6 -1 11 2 17 5 13 3 -3 4 -12 1 -19z m539 -123 c15 -9 22 -20 17 -24
-12 -8 -132 -178 -141 -200 -4 -9 -13 -26 -21 -37 -13 -20 -17 -21 -48 -8 -47
20 -41 11 17 -25 101 -62 190 -189 190 -271 0 -54 -17 -85 -164 -293 l-33 -48
-12 48 c-10 38 -25 60 -74 108 -63 61 -180 145 -201 144 -6 0 -2 -7 10 -15
l21 -14 -29 -61 c-16 -33 -44 -82 -63 -110 -19 -27 -35 -53 -35 -59 0 -5 -9
-14 -20 -20 -11 -6 -20 -15 -20 -20 0 -5 -30 -52 -67 -105 -70 -99 -163 -243
-163 -251 0 -7 -61 -96 -76 -112 -7 -6 -15 -21 -19 -31 -3 -11 -12 -22 -20
-25 -8 -3 -15 -11 -15 -18 0 -7 -16 -28 -35 -47 -19 -18 -40 -46 -47 -62 -7
-16 -16 -29 -20 -29 -5 0 -8 -5 -8 -11 0 -5 -35 -62 -77 -126 -43 -63 -86
-127 -95 -141 -9 -14 -24 -30 -32 -34 -9 -5 -16 -13 -16 -18 0 -6 -10 -21 -22
-35 -13 -14 -41 -55 -63 -90 -89 -140 -204 -302 -257 -360 -15 -16 -28 -33
-28 -37 0 -15 -23 -8 -72 22 -56 35 -148 59 -228 61 -30 0 -49 3 -42 6 6 2 10
8 8 12 -2 3 47 78 110 166 64 88 127 177 140 198 14 21 31 40 39 43 8 3 21 19
29 34 7 16 34 57 60 92 25 35 126 177 225 315 99 139 206 288 239 330 88 117
158 217 178 254 9 18 53 80 98 137 44 57 100 130 124 161 27 35 50 55 60 53
12 -2 14 0 4 6 -9 6 -5 19 20 53 72 100 218 277 233 283 9 3 37 6 61 6 29 0
44 4 44 13 0 29 166 203 202 210 41 9 107 0 134 -18z m-1316 -5 c-8 -5 -19
-10 -25 -10 -5 0 -3 5 5 10 8 5 20 10 25 10 6 0 3 -5 -5 -10z m2876 -95 c13
-20 15 -33 8 -58 -8 -27 -15 -32 -44 -34 -19 -1 -28 1 -20 4 17 7 40 29 40 37
0 3 -11 6 -25 6 -16 0 -25 6 -25 15 0 8 7 15 15 15 8 0 14 3 14 8 -6 38 14 42
37 7z m-2282 -61 c3 -8 2 -13 -3 -10 -5 3 -11 -12 -13 -35 -3 -29 1 -43 12
-49 8 -5 11 -9 5 -10 -27 0 -34 17 -28 68 6 52 16 65 27 36z m16 -68 c0 -3 -4
-8 -10 -11 -5 -3 -10 -1 -10 4 0 6 5 11 10 11 6 0 10 -2 10 -4z m-53 -73 c-3
-10 -5 -4 -5 12 0 17 2 24 5 18 2 -7 2 -21 0 -30z m890 -295 c-3 -8 -6 -5 -6
6 -1 11 2 17 5 13 3 -3 4 -12 1 -19z m-114 -253 c-3 -9 -8 -14 -10 -11 -3 3
-2 9 2 15 9 16 15 13 8 -4z m-44 -72 c-25 -43 -39 -60 -39 -50 0 9 51 87 57
87 3 0 -5 -17 -18 -37z m-219 -83 c-6 -11 -13 -20 -16 -20 -2 0 0 9 6 20 6 11
13 20 16 20 2 0 0 -9 -6 -20z m140 -42 c-11 -18 -29 -44 -41 -58 -21 -24 -21
-24 0 10 12 19 27 45 33 58 6 12 15 22 19 22 5 0 -1 -15 -11 -32z m-60 -92 c0
-2 -8 -10 -17 -17 -16 -13 -17 -12 -4 4 13 16 21 21 21 13z m-30 -40 c0 -2 -8
-10 -17 -17 -16 -13 -17 -12 -4 4 13 16 21 21 21 13z m-70 -236 c-76 -508
-129 -836 -113 -690 4 36 8 110 9 165 1 55 7 123 13 150 10 50 44 269 44 293
0 6 5 12 10 12 5 0 7 7 3 15 -3 8 -1 15 5 15 7 0 8 12 4 31 -5 22 -2 36 11 50
9 10 18 18 20 17 1 -2 -2 -28 -6 -58z m1613 -75 c3 -7 -1 -23 -10 -35 l-15
-21 -15 20 c-10 15 -11 26 -3 40 11 21 35 19 43 -4z m-142 -166 c10 -15 37
-35 60 -46 l42 -20 -29 -10 c-43 -15 -81 -58 -102 -115 l-19 -51 -6 33 c-12
56 -45 97 -98 123 l-49 23 40 18 c46 20 82 63 100 121 l13 40 15 -45 c8 -25
23 -57 33 -71z m-1965 -97 c-17 -16 -18 -16 -5 5 7 12 15 20 18 17 3 -2 -3
-12 -13 -22z m111 -39 c-3 -10 -5 -2 -5 17 0 19 2 27 5 18 2 -10 2 -26 0 -35z
m-5 -72 c-2 -23 -7 -41 -11 -41 -3 0 -5 20 -3 45 2 25 7 43 11 41 4 -3 5 -23
3 -45z m1660 -208 c7 -6 27 -14 43 -18 l30 -7 -37 -12 c-40 -12 -65 -39 -78
-84 -7 -26 -8 -26 -19 15 -6 23 -23 51 -38 62 -19 16 -21 21 -9 21 19 0 56 55
56 85 1 15 6 11 20 -16 10 -19 25 -40 32 -46z m337 18 c8 -14 6 -22 -8 -35 -9
-9 -20 -16 -23 -16 -12 0 -17 45 -6 57 15 18 26 16 37 -6z m-2052 -38 c-3 -10
-5 -4 -5 12 0 17 2 24 5 18 2 -7 2 -21 0 -30z m-4182 -113 c-9 -41 -17 -33 -9
9 4 17 9 30 11 27 3 -2 2 -19 -2 -36z m-55 -222 c-23 -95 -44 -175 -45 -177
-2 -1 -3 14 -2 35 1 22 5 41 8 44 3 3 21 67 39 143 18 75 35 135 38 133 2 -3
-15 -83 -38 -178z m4207 90 c-3 -8 -6 -5 -6 6 -1 11 2 17 5 13 3 -3 4 -12 1
-19z m2050 -9 c7 -6 17 -8 23 -4 7 4 7 -3 -1 -22 -9 -23 -7 -30 10 -44 11 -9
17 -19 14 -23 -4 -3 -2 -6 4 -6 6 0 14 -11 17 -25 4 -17 11 -23 19 -19 7 4 2
-4 -11 -18 -12 -13 -19 -28 -15 -33 5 -4 -2 -3 -14 4 -26 13 -36 14 -28 2 3
-5 0 -13 -6 -17 -6 -3 -15 0 -20 7 -8 13 -12 -4 -12 -62 0 -9 -6 -16 -13 -16
-8 0 -14 4 -14 9 0 4 5 8 12 8 9 0 9 3 1 11 -16 16 3 63 30 77 12 6 36 13 52
14 l30 3 -32 6 c-48 8 -92 -32 -100 -88 -5 -37 -9 -43 -29 -43 -13 0 -23 3
-23 8 1 4 1 22 0 40 -1 28 -4 32 -28 32 -14 0 -23 3 -20 6 8 8 -24 64 -35 64
-4 0 -8 7 -8 15 0 13 7 15 35 9 29 -5 38 -2 60 21 14 16 25 35 25 44 0 9 -8 1
-17 -17 -9 -18 -26 -35 -40 -38 -35 -9 -37 0 -9 31 15 16 26 32 26 37 0 5 4 7
8 4 5 -3 14 3 21 13 15 20 68 26 88 10z m-490 -171 c25 -25 61 -47 94 -58 52
-18 53 -19 24 -26 -109 -26 -171 -93 -190 -204 -5 -30 -10 -38 -16 -29 -5 8
-9 24 -9 37 0 64 -76 151 -163 186 l-55 22 43 13 c79 23 163 116 180 200 7 33
7 33 30 -34 15 -47 34 -79 62 -107z m-1590 -45 c-3 -10 -5 -4 -5 12 0 17 2 24
5 18 2 -7 2 -21 0 -30z m1127 -11 c-13 -20 -25 -20 -38 1 -7 10 -5 21 4 32 12
15 15 15 29 0 12 -12 13 -19 5 -33z m-5365 -106 c-7 -31 -14 -54 -16 -52 -3 2
1 30 7 61 6 31 14 54 17 52 3 -3 -1 -31 -8 -61z m-22 -88 c-3 -8 -6 -5 -6 6
-1 11 2 17 5 13 3 -3 4 -12 1 -19z m4230 -10 c-3 -7 -5 -2 -5 12 0 14 2 19 5
13 2 -7 2 -19 0 -25z m706 10 c7 -20 -12 -48 -32 -48 -22 0 -34 33 -18 49 15
15 44 14 50 -1z m-4946 -40 c-3 -8 -6 -5 -6 6 -1 11 2 17 5 13 3 -3 4 -12 1
-19z m4360 16 c-3 -3 -12 -4 -19 -1 -8 3 -5 6 6 6 11 1 17 -2 13 -5z m-132
-89 c-4 -31 -10 -54 -12 -51 -3 3 -2 30 2 61 3 31 9 54 12 52 2 -3 1 -31 -2
-62z m-4240 23 c-4 -18 -11 -62 -16 -98 l-8 -65 4 80 c4 77 11 115 22 115 3 0
2 -15 -2 -32z m3925 -128 c8 13 10 12 10 -2 0 -12 -8 -18 -21 -18 -19 0 -21 4
-15 31 3 17 7 46 8 63 1 17 3 4 5 -29 3 -41 7 -55 13 -45z m2126 54 c10 -8 13
-12 6 -9 -8 4 -26 11 -40 15 -22 7 -23 8 -6 9 11 1 29 -6 40 -15z m-427 -8
c16 -19 -4 -59 -26 -54 -26 5 -39 34 -24 52 17 20 35 20 50 2z m415 -12 c20
-19 20 -38 1 -54 -12 -10 -20 -9 -40 4 -14 9 -25 21 -25 26 0 11 29 40 40 40
5 0 16 -7 24 -16z m-1817 -31 c-3 -10 -5 -4 -5 12 0 17 2 24 5 18 2 -7 2 -21
0 -30z m1101 -29 c20 -73 66 -132 126 -160 28 -13 60 -24 71 -24 11 0 27 -5
35 -10 12 -8 11 -10 -7 -10 -29 0 -100 -28 -136 -53 -42 -29 -77 -91 -89 -160
l-12 -62 -13 65 c-7 35 -25 82 -41 104 -31 46 -100 93 -149 102 -42 8 -53 24
-16 24 42 1 103 33 145 76 41 43 58 80 58 125 0 44 14 35 28 -17z m-443 -14
c0 -31 -3 -35 -27 -38 -22 -3 -29 2 -34 22 -8 32 12 58 40 54 17 -2 21 -10 21
-38z m-668 -27 c-3 -10 -5 -4 -5 12 0 17 2 24 5 18 2 -7 2 -21 0 -30z m331 30
c-10 -2 -26 -2 -35 0 -10 3 -2 5 17 5 19 0 27 -2 18 -5z m-651 -50 c-3 -10 -5
-2 -5 17 0 19 2 27 5 18 2 -10 2 -26 0 -35z m702 -2 c0 -14 -1 -14 -6 -1 -3 8
-10 24 -15 35 -9 20 -9 20 6 1 9 -11 16 -27 15 -35z m-394 -76 c-4 -37 -9 -64
-12 -62 -3 3 -2 35 2 72 4 36 10 64 12 61 3 -3 2 -35 -2 -71z m366 24 c-13
-10 -33 -19 -45 -18 -16 1 -15 3 8 10 17 4 34 16 39 24 5 9 12 14 15 10 4 -4
-4 -15 -17 -26z m-80 4 c13 -16 12 -17 -3 -4 -10 7 -18 15 -18 17 0 8 8 3 21
-13z m-5321 -288 c-7 -8 -17 -15 -22 -15 -11 0 14 29 26 30 5 0 3 -7 -4 -15z
m5666 -111 l-21 -33 -27 32 -26 32 26 28 26 27 22 -27 21 -27 -21 -32z m-5533
-11 c-7 -2 -19 -2 -25 0 -7 3 -2 5 12 5 14 0 19 -2 13 -5z m4834 -75 c-3 -7
-5 -2 -5 12 0 14 2 19 5 13 2 -7 2 -19 0 -25z m-4707 -1 c13 4 13 3 0 -6 -9
-6 -19 -6 -24 -1 -4 4 -14 6 -21 4 -7 -3 -16 0 -21 7 -5 9 -2 10 9 6 10 -4 17
-1 17 6 1 7 5 6 13 -4 7 -9 19 -14 27 -12z m123 3 c-3 -11 -10 -23 -16 -27 -6
-4 -8 0 -4 10 4 10 1 17 -6 18 -7 0 -3 4 8 9 11 5 21 9 22 9 0 1 -1 -8 -4 -19z
m391 -18 c3 -5 -1 -9 -9 -9 -8 0 -12 4 -9 9 3 4 7 8 9 8 2 0 6 -4 9 -8z m-559
-12 c-3 -5 -12 -10 -18 -10 -7 0 -6 4 3 10 19 12 23 12 15 0z m70 0 c3 -5 2
-10 -4 -10 -5 0 -13 5 -16 10 -3 6 -2 10 4 10 5 0 13 -4 16 -10z m165 -3 c0
-4 4 -5 10 -2 5 3 20 -1 31 -9 l22 -15 -22 2 c-11 1 -21 6 -21 12 0 5 -5 3
-10 -5 -5 -8 -10 -10 -10 -4 0 6 -10 16 -22 22 l-23 10 23 -1 c12 -1 22 -5 22
-10z m-45 -7 c3 -6 -1 -7 -9 -4 -18 7 -21 14 -7 14 6 0 13 -4 16 -10z m320
-40 c-2 -13 2 -20 11 -20 8 0 14 -4 14 -9 0 -6 -8 -9 -18 -8 -12 0 -18 10 -19
29 0 15 3 28 8 28 4 0 6 -9 4 -20z m-10 -58 c-3 -3 -11 0 -18 7 -9 10 -8 11 6
5 10 -3 15 -9 12 -12z m759 -219 c4 -5 18 -8 29 -8 17 0 22 -6 23 -25 1 -37
-12 -57 -41 -62 -30 -6 -47 17 -50 69 -1 25 2 33 15 33 9 0 20 -3 24 -7z m830
-65 c29 -40 -18 -86 -54 -53 -20 18 -27 55 -13 68 14 15 53 6 67 -15z m-336
-106 c2 -7 -3 -12 -12 -12 -9 0 -16 7 -16 16 0 17 22 14 28 -4z m710 -14 c3
-25 0 -28 -27 -28 -21 0 -32 6 -36 20 -9 28 3 42 33 38 21 -2 28 -9 30 -30z
m-633 12 c3 -5 1 -10 -4 -10 -6 0 -11 5 -11 10 0 6 2 10 4 10 3 0 8 -4 11 -10z
m1010 -40 c4 6 13 9 20 6 7 -2 17 -1 21 2 5 4 5 2 -1 -5 -5 -6 -26 -14 -45
-18 -28 -5 -41 -2 -60 15 -23 19 -23 20 -3 11 30 -15 33 -14 26 7 -4 12 0 11
15 -6 13 -15 23 -19 27 -12z m-1069 5 c14 -13 13 -15 -10 -15 -25 0 -33 10
-19 23 9 10 13 9 29 -8z"/>
<path d="M8333 6779 c-35 -22 -46 -37 -15 -20 22 13 58 40 52 41 -3 0 -20 -10
-37 -21z"/>
<path d="M8235 6716 c-71 -48 -198 -129 -357 -227 -75 -46 -135 -85 -133 -87
4 -5 285 168 443 272 90 60 110 76 99 76 -2 0 -25 -15 -52 -34z"/>
<path d="M7663 6359 c-35 -22 -46 -37 -15 -20 22 13 58 40 52 41 -3 0 -20 -10
-37 -21z"/>
<path d="M8115 5989 c-82 -55 -204 -134 -270 -176 -95 -60 -519 -337 -533
-349 -2 -1 -6 -24 -9 -51 -2 -26 -18 -133 -34 -237 -30 -199 -35 -251 -20
-260 10 -6 119 49 158 80 23 18 30 39 54 155 24 117 27 125 23 64 -3 -44 -2
-65 4 -57 7 11 12 10 25 -3 11 -10 25 -13 41 -9 21 5 27 15 35 57 25 134 63
315 71 347 8 30 9 28 5 -20 -4 -48 -3 -52 8 -31 6 13 16 23 20 22 11 -2 31 20
41 44 8 19 9 19 15 -3 4 -17 13 12 30 92 42 207 34 115 -14 -150 -25 -142 -44
-268 -40 -282 10 -41 50 -24 159 70 l38 34 49 229 c28 126 52 231 55 234 3 3
2 -19 -1 -49 -4 -30 -3 -50 2 -45 12 16 59 13 55 -3 -2 -9 8 -6 27 8 28 19 45
37 46 50 6 38 21 79 35 95 9 11 28 63 40 115 13 52 27 103 32 113 5 9 7 17 6
17 -2 0 -70 -46 -153 -101z m-438 -391 c-3 -7 -5 -2 -5 12 0 14 2 19 5 13 2
-7 2 -19 0 -25z m-180 -300 c-3 -7 -5 -2 -5 12 0 14 2 19 5 13 2 -7 2 -19 0
-25z"/>
<path d="M8011 5664 c0 -11 3 -14 6 -6 3 7 2 16 -1 19 -3 4 -6 -2 -5 -13z"/>
<path d="M7688 4874 c-43 -30 -84 -64 -92 -77 -8 -12 -26 -83 -40 -157 -92
-485 -90 -470 -62 -470 15 0 147 89 163 109 23 30 150 609 139 636 -9 24 -27
17 -108 -41z"/>
<path d="M7287 4639 c-49 -33 -92 -71 -98 -82 -14 -34 -109 -585 -109 -634 0
-30 4 -43 14 -43 8 0 51 25 96 56 58 40 86 67 96 90 8 19 42 170 75 336 76
378 75 382 -74 277z"/>
<path d="M7072 5649 c8 -23 -19 -96 -52 -143 -16 -25 -30 -48 -30 -53 0 -4
-18 -37 -40 -73 -22 -36 -40 -68 -40 -71 0 -3 8 -14 18 -25 10 -10 22 -28 26
-39 7 -19 9 -18 23 9 9 16 26 41 39 55 13 14 24 29 24 33 0 5 7 16 16 26 40
44 64 95 64 133 0 22 4 38 9 34 12 -7 -1 41 -23 82 -17 33 -42 57 -34 32z"/>
<path d="M8411 3668 c-1 -25 40 -65 74 -72 25 -4 23 -2 -11 13 -28 13 -45 29
-52 48 -6 16 -11 21 -11 11z"/>
<path d="M8317 3573 c31 -16 48 -43 56 -93 4 -24 4 -24 6 3 2 51 -41 108 -81
106 -7 0 1 -7 19 -16z"/>
<path d="M7007 3294 c-9 -10 4 -34 19 -34 8 0 14 9 14 20 0 19 -19 27 -33 14z"/>
<path d="M8356 8774 c-4 -9 -4 -19 -1 -22 2 -3 7 3 11 12 4 9 4 19 1 22 -2 3
-7 -3 -11 -12z"/>
<path d="M5623 8613 c15 -2 39 -2 55 0 15 2 2 4 -28 4 -30 0 -43 -2 -27 -4z"/>
<path d="M5753 8603 c9 -2 25 -2 35 0 9 3 1 5 -18 5 -19 0 -27 -2 -17 -5z"/>
<path d="M5848 8593 c12 -2 30 -2 40 0 9 3 -1 5 -23 4 -22 0 -30 -2 -17 -4z"/>
<path d="M5938 8583 c12 -2 30 -2 40 0 9 3 -1 5 -23 4 -22 0 -30 -2 -17 -4z"/>
<path d="M6038 8573 c12 -2 30 -2 40 0 9 3 -1 5 -23 4 -22 0 -30 -2 -17 -4z"/>
<path d="M6128 8563 c12 -2 30 -2 40 0 9 3 -1 5 -23 4 -22 0 -30 -2 -17 -4z"/>
<path d="M6210 8554 c8 -2 161 -20 340 -39 179 -19 334 -38 345 -41 17 -4 17
-3 4 5 -17 11 -128 25 -469 61 -179 18 -259 24 -220 14z"/>
<path d="M6883 8416 c-26 -28 -32 -47 -42 -122 -17 -139 -32 -214 -42 -214 -5
0 -9 3 -9 8 0 24 31 280 36 294 7 23 0 25 -91 31 l-80 6 69 -12 c40 -7 71 -18
74 -25 2 -8 -2 -73 -9 -145 -7 -73 -12 -135 -11 -139 3 -12 -41 -9 -153 7 -55
8 -113 14 -130 14 -16 -1 42 -12 130 -25 88 -13 178 -28 200 -33 21 -6 41 -8
44 -6 10 10 32 169 39 278 4 64 7 117 6 117 -1 0 -15 -15 -31 -34z"/>
<path d="M6523 8433 c9 -2 23 -2 30 0 6 3 -1 5 -18 5 -16 0 -22 -2 -12 -5z"/>
<path d="M6598 8423 c12 -2 30 -2 40 0 9 3 -1 5 -23 4 -22 0 -30 -2 -17 -4z"/>
<path d="M4635 8331 c-3 -5 -1 -12 5 -16 5 -3 10 1 10 9 0 18 -6 21 -15 7z"/>
<path d="M4631 8283 c-1 -6 -4 -20 -7 -30 -5 -17 -5 -17 6 0 6 10 9 23 6 30
-3 9 -5 9 -5 0z"/>
<path d="M8198 8215 c-2 -19 0 -35 4 -35 4 0 8 16 8 35 0 19 -2 35 -4 35 -2 0
-6 -16 -8 -35z"/>
<path d="M4610 8190 c-6 -23 -9 -44 -7 -46 2 -3 9 14 15 38 6 23 9 44 7 46 -2
2 -9 -15 -15 -38z"/>
<path d="M6912 8175 c0 -16 2 -22 5 -12 2 9 2 23 0 30 -3 6 -5 -1 -5 -18z"/>
<path d="M4150 8149 c-22 -18 -22 -19 -3 -10 12 6 25 16 28 21 9 15 3 12 -25
-11z"/>
<path d="M5359 8153 c-13 -16 -12 -17 4 -4 9 7 17 15 17 17 0 8 -8 3 -21 -13z"/>
<path d="M4425 8134 c-18 -16 -22 -22 -9 -15 18 9 53 42 43 41 -2 -1 -17 -12
-34 -26z"/>
<path d="M6278 8143 c6 -2 18 -2 25 0 6 3 1 5 -13 5 -14 0 -19 -2 -12 -5z"/>
<path d="M6343 8133 c9 -2 25 -2 35 0 9 3 1 5 -18 5 -19 0 -27 -2 -17 -5z"/>
<path d="M6413 8123 c9 -2 25 -2 35 0 9 3 1 5 -18 5 -19 0 -27 -2 -17 -5z"/>
<path d="M4089 8093 l-24 -28 28 24 c25 23 32 31 24 31 -2 0 -14 -12 -28 -27z"/>
<path d="M4582 8108 c-7 -7 -12 -17 -12 -24 0 -6 -6 -17 -14 -24 -8 -6 -13
-17 -10 -24 5 -14 -55 -81 -64 -72 -3 3 1 12 8 21 7 8 -7 4 -33 -10 -25 -14
-51 -32 -57 -40 -14 -17 -35 -21 -25 -5 7 12 3 12 -20 4 -11 -5 -13 -9 -5 -14
17 -10 -35 -41 -79 -47 -26 -4 -41 0 -50 10 -10 13 -6 24 25 69 20 29 51 65
67 79 33 27 43 56 21 56 -8 0 -12 -2 -10 -4 5 -5 -57 -68 -65 -66 -6 2 -50
-38 -92 -85 -16 -18 -33 -30 -38 -27 -4 3 -11 -6 -14 -20 -3 -14 -7 -36 -10
-50 -3 -13 -16 -37 -29 -52 -21 -23 -28 -26 -43 -17 -10 6 -19 21 -19 33 -2
26 -14 41 -14 17 0 -13 -5 -16 -17 -11 -10 4 -32 11 -48 15 -28 6 -31 4 -33
-17 -1 -12 3 -23 8 -23 18 0 11 -20 -7 -21 -12 -1 -10 -4 7 -9 18 -6 6 -8 -45
-10 -46 -1 -63 -4 -50 -9 11 -5 25 -6 32 -4 6 3 20 0 30 -6 17 -10 17 -10 -2
-11 -17 0 -17 -2 -5 -10 23 -15 -85 -12 -150 4 -69 17 -90 26 -90 37 0 5 -10
9 -22 9 -20 0 -19 -3 10 -20 22 -13 32 -26 28 -35 -3 -8 -1 -15 4 -15 13 0 80
-60 80 -72 0 -6 -17 -31 -39 -57 -21 -25 -43 -57 -50 -71 -8 -18 -4 -15 16 10
72 92 159 165 241 205 l84 40 18 -23 c16 -19 23 -21 40 -12 29 16 27 -3 -11
-80 -18 -36 -35 -72 -39 -79 -4 -8 -18 -18 -32 -22 -14 -4 -35 -16 -47 -28
-11 -11 -27 -21 -33 -21 -9 0 -8 4 2 10 13 9 13 10 0 10 -8 0 -22 -5 -30 -10
-13 -9 -13 -10 0 -11 18 -1 -39 -28 -60 -28 -12 -1 -12 1 -2 8 8 5 -8 7 -40 4
-83 -6 -117 -13 -124 -25 -4 -6 -1 -9 7 -6 8 3 19 -1 26 -8 7 -7 23 -10 35 -7
18 4 20 2 8 -6 -23 -16 35 -34 105 -32 71 3 113 21 212 95 71 53 74 54 110 43
21 -6 49 -21 63 -33 37 -33 151 -84 193 -86 55 -2 64 12 61 86 -3 53 -1 65 14
71 9 3 18 1 20 -4 2 -6 10 -11 18 -11 9 0 12 -4 9 -10 -3 -5 -1 -10 5 -10 7 0
8 -6 2 -17 -9 -20 -9 -30 3 -57 4 -10 4 -21 -1 -25 -11 -7 -10 -43 1 -61 4 -7
3 -15 -3 -19 -10 -6 -19 -41 -21 -80 -1 -11 -4 -11 -18 0 -9 8 -14 9 -10 3 8
-13 -24 -54 -42 -54 -7 0 -9 -5 -5 -12 4 -7 3 -8 -5 -4 -6 4 -17 4 -24 -1 -7
-5 -33 -17 -59 -27 -27 -10 -48 -22 -48 -27 0 -5 -5 -9 -11 -9 -7 0 -30 -15
-53 -34 -23 -18 -67 -45 -99 -60 -54 -24 -66 -26 -195 -25 l-138 1 -85 42
c-47 22 -94 50 -105 60 -22 22 -44 87 -44 131 0 17 -4 35 -8 41 -11 17 -52 36
-52 25 0 -5 -10 -11 -22 -13 -14 -2 -34 -21 -53 -50 -70 -110 -91 -144 -102
-171 -7 -16 -24 -43 -38 -60 -14 -18 -29 -36 -33 -42 -4 -5 -8 -20 -9 -32 -1
-19 6 -23 64 -33 l66 -11 26 29 c37 42 100 87 140 100 79 27 212 2 269 -51 20
-19 49 -93 39 -103 -2 -2 -18 -1 -36 2 -17 4 -29 9 -27 12 10 9 -56 90 -78 96
-62 17 -119 -8 -189 -83 -57 -61 -113 -177 -123 -253 -9 -70 -21 -93 -39 -78
-8 7 -17 27 -21 46 -3 19 -11 31 -16 28 -14 -9 -1 85 22 158 10 32 14 56 10
53 -13 -8 -48 -125 -55 -185 -5 -40 -14 -63 -35 -85 -61 -66 -60 -154 1 -228
54 -66 135 -85 208 -48 120 62 145 200 51 285 l-39 35 15 58 c19 76 60 141
104 165 30 17 48 19 134 14 55 -4 130 -11 168 -17 67 -10 69 -10 88 14 10 13
43 40 72 60 70 48 147 65 226 48 111 -24 166 -65 178 -133 4 -25 3 -29 -5 -18
-7 10 -11 11 -11 3 0 -26 -38 -13 -50 16 -17 41 -38 58 -92 72 -37 10 -55 10
-87 0 -23 -6 -41 -16 -41 -20 0 -5 -12 -14 -27 -20 -34 -15 -54 -41 -117 -156
-46 -85 -49 -95 -55 -185 -6 -88 -7 -93 -20 -70 -16 27 -34 150 -33 222 0 26
10 67 21 92 25 56 19 60 -9 6 -24 -47 -50 -150 -50 -201 0 -25 -7 -43 -25 -59
-34 -32 -59 -101 -51 -143 4 -19 20 -54 37 -77 112 -155 356 -61 326 127 -7
42 -43 97 -74 114 -32 17 -29 42 20 139 36 73 47 86 75 95 17 5 32 13 32 17 0
14 110 8 219 -11 l105 -18 55 57 c67 68 130 94 218 88 l58 -3 16 120 c30 210
90 589 100 625 5 19 36 69 70 110 84 104 271 350 265 350 -3 0 -53 -63 -112
-140 -58 -77 -110 -140 -115 -140 -4 0 -16 10 -26 23 -33 41 -107 84 -139 81
-102 -11 -263 -14 -269 -4 -3 5 -17 10 -30 10 -14 0 -29 8 -35 19 -19 36 -12
49 33 60 41 10 40 10 -21 7 l-63 -4 19 32 c16 27 34 76 28 76 -1 0 -7 -5 -14
-12z m-122 -163 c0 -2 -10 -9 -22 -15 -22 -11 -22 -10 -4 4 21 17 26 19 26 11z
m-5 -99 c62 -13 102 -31 144 -64 l24 -19 -49 -36 c-39 -29 -59 -37 -94 -37
-25 0 -63 -5 -85 -11 -48 -12 -53 -13 -85 -3 -22 7 -20 3 14 -32 50 -51 64
-81 72 -149 7 -57 7 -57 -17 -50 -49 14 -165 70 -206 98 -75 53 -115 133 -77
155 9 5 14 13 12 18 -6 18 66 15 113 -5 55 -24 101 -28 93 -8 -2 7 -28 19 -56
27 l-51 13 29 13 c29 14 29 14 -16 10 -25 -3 -64 -8 -88 -12 -36 -6 -41 -4
-36 9 3 9 12 13 19 11 7 -3 20 5 29 18 9 12 16 19 16 14 0 -4 8 2 18 14 31 39
161 51 277 26z m-738 -412 c-3 -3 -12 -4 -19 -1 -8 3 -5 6 6 6 11 1 17 -2 13
-5z m785 -361 c10 -13 8 -19 -16 -40 -35 -30 -60 -26 -64 8 -6 50 47 71 80 32z
m13 -53 c-3 -5 -11 -10 -16 -10 -6 0 -7 5 -4 10 3 6 11 10 16 10 6 0 7 -4 4
-10z m59 -16 c19 -18 21 -65 4 -82 -17 -17 -54 -15 -73 4 -17 18 -13 48 13 77
19 21 36 22 56 1z m-1046 -615 c-13 -23 -34 -49 -48 -58 -23 -15 -22 -13 5 20
17 19 37 50 45 69 8 18 16 28 18 22 2 -7 -7 -31 -20 -53z m607 -73 c-15 -32
-68 -76 -91 -76 -5 0 6 9 24 20 37 23 71 74 73 110 2 23 2 23 6 3 2 -12 -3
-38 -12 -57z"/>
<path d="M4369 8083 c-13 -16 -12 -17 4 -4 16 13 21 21 13 21 -2 0 -10 -8 -17
-17z"/>
<path d="M7130 8069 c0 -5 5 -7 10 -4 6 3 10 8 10 11 0 2 -4 4 -10 4 -5 0 -10
-5 -10 -11z"/>
<path d="M6766 8012 l-19 -27 24 22 c12 12 21 24 18 27 -2 2 -13 -8 -23 -22z"/>
<path d="M3913 7985 c0 -22 2 -30 4 -17 2 12 2 30 0 40 -3 9 -5 -1 -4 -23z"/>
<path d="M4743 8003 c9 -2 23 -2 30 0 6 3 -1 5 -18 5 -16 0 -22 -2 -12 -5z"/>
<path d="M4820 7985 c46 -18 74 -17 35 0 -16 8 -39 14 -50 14 -13 0 -8 -5 15
-14z"/>
<path d="M4102 7960 c0 -14 2 -19 5 -12 2 6 2 18 0 25 -3 6 -5 1 -5 -13z"/>
<path d="M6729 7963 c-13 -16 -12 -17 4 -4 9 7 17 15 17 17 0 8 -8 3 -21 -13z"/>
<path d="M3860 7936 c0 -2 14 -6 30 -8 17 -3 30 -1 30 4 0 4 -13 8 -30 8 -16
0 -30 -2 -30 -4z"/>
<path d="M6660 7874 c-29 -37 -48 -64 -41 -60 13 8 104 126 97 126 -2 0 -28
-30 -56 -66z"/>
<path d="M7390 7909 c-134 -29 -240 -62 -234 -71 3 -5 0 -16 -7 -24 -6 -8 -9
-17 -6 -20 3 -3 68 8 144 24 189 41 233 45 359 32 121 -12 199 -33 208 -56 4
-10 -6 -27 -26 -46 -32 -30 -35 -30 -108 -25 -44 3 -62 2 -45 -3 17 -4 59 -8
94 -9 60 -1 65 1 96 34 34 36 54 90 38 106 -15 15 -148 58 -214 68 -93 16
-202 12 -299 -10z"/>
<path d="M4285 7899 c-44 -20 -36 -25 14 -8 17 6 31 15 31 20 0 5 -1 9 -2 8
-2 0 -21 -9 -43 -20z"/>
<path d="M4040 7825 c-14 -37 -12 -53 4 -32 7 9 18 17 24 17 14 0 8 33 -6 38
-7 2 -16 -8 -22 -23z"/>
<path d="M1072 7820 c0 -14 2 -19 5 -12 2 6 2 18 0 25 -3 6 -5 1 -5 -13z"/>
<path d="M3539 7801 c13 -12 28 -21 35 -21 12 0 -5 14 -39 31 -16 8 -15 6 4
-10z"/>
<path d="M1062 7770 c0 -14 2 -19 5 -12 2 6 2 18 0 25 -3 6 -5 1 -5 -13z"/>
<path d="M6529 7703 c-23 -32 -36 -53 -28 -46 17 14 83 103 76 103 -3 0 -24
-26 -48 -57z"/>
<path d="M3530 7716 c-25 -18 -83 -73 -130 -122 -46 -49 -98 -97 -115 -106
-16 -9 -26 -17 -22 -18 21 -1 60 31 157 130 58 58 119 116 135 127 17 12 28
22 25 22 -3 0 -25 -14 -50 -33z"/>
<path d="M1053 7700 c0 -25 2 -35 4 -22 2 12 2 32 0 45 -2 12 -4 2 -4 -23z"/>
<path d="M6464 7618 l-19 -23 23 19 c21 18 27 26 19 26 -2 0 -12 -10 -23 -22z"/>
<path d="M3955 7604 c-18 -16 -22 -22 -9 -15 18 9 53 42 43 41 -2 -1 -17 -12
-34 -26z"/>
<path d="M6429 7573 c-13 -16 -12 -17 4 -4 9 7 17 15 17 17 0 8 -8 3 -21 -13z"/>
<path d="M6394 7528 l-19 -23 23 19 c21 18 27 26 19 26 -2 0 -12 -10 -23 -22z"/>
<path d="M6359 7483 c-13 -16 -12 -17 4 -4 9 7 17 15 17 17 0 8 -8 3 -21 -13z"/>
<path d="M3195 7449 c-22 -10 -69 -33 -105 -49 -36 -17 -54 -28 -40 -24 32 8
208 92 195 93 -5 0 -28 -9 -50 -20z"/>
<path d="M6108 7463 c6 -2 18 -2 25 0 6 3 1 5 -13 5 -14 0 -19 -2 -12 -5z"/>
<path d="M6163 7453 c9 -2 23 -2 30 0 6 3 -1 5 -18 5 -16 0 -22 -2 -12 -5z"/>
<path d="M3253 7332 c-11 -31 -24 -66 -28 -77 -6 -20 -7 -20 -21 -1 -8 12 -14
15 -14 7 0 -8 -8 -11 -20 -8 -11 3 -20 1 -20 -4 0 -5 -5 -9 -11 -9 -6 0 -22
-9 -36 -20 -18 -14 -30 -17 -41 -11 -11 6 -20 4 -28 -7 -14 -19 -59 -28 -48
-10 5 9 2 9 -9 -1 -20 -16 -22 -8 -6 21 8 15 8 19 0 14 -6 -4 -11 -2 -11 3 0
6 4 11 8 11 5 0 17 7 28 15 16 13 13 13 -21 -1 -22 -9 -52 -20 -67 -26 -16 -5
-28 -16 -28 -22 0 -7 -12 -13 -28 -13 -42 0 -698 -310 -736 -348 -48 -48 -17
-57 404 -111 151 -19 284 -37 295 -40 17 -4 25 5 47 49 61 125 127 169 264
175 l91 4 2 107 c2 122 13 200 42 289 26 80 20 90 -8 14z m-183 -147 c0 -9 -6
-12 -15 -9 -8 4 -15 10 -15 15 0 5 7 9 15 9 8 0 15 -7 15 -15z m-3 -71 c-3 -3
-12 -4 -19 -1 -8 3 -5 6 6 6 11 1 17 -2 13 -5z"/>
<path d="M2975 7351 c-22 -11 -37 -20 -34 -20 10 -1 79 29 79 34 0 7 0 7 -45
-14z"/>
<path d="M2870 7305 c-25 -13 -40 -24 -35 -24 6 0 30 11 55 24 25 13 41 24 35
24 -5 0 -30 -11 -55 -24z"/>
<path d="M2780 7265 c-14 -8 -20 -14 -15 -14 6 0 21 6 35 14 14 8 21 14 15 14
-5 0 -21 -6 -35 -14z"/>
<path d="M2700 7230 c-19 -11 -30 -19 -25 -19 6 0 26 8 45 19 19 11 31 19 25
19 -5 0 -26 -8 -45 -19z"/>
<path d="M6262 7200 c0 -14 2 -19 5 -12 2 6 2 18 0 25 -3 6 -5 1 -5 -13z"/>
<path d="M2605 7186 c-27 -14 -47 -25 -44 -25 9 -1 99 39 99 44 0 7 -1 7 -55
-19z"/>
<path d="M6252 7140 c0 -14 2 -19 5 -12 2 6 2 18 0 25 -3 6 -5 1 -5 -13z"/>
<path d="M2500 7140 c-8 -5 -10 -10 -5 -10 6 0 17 5 25 10 8 5 11 10 5 10 -5
0 -17 -5 -25 -10z"/>
<path d="M2460 7120 c-9 -6 -10 -10 -3 -10 6 0 15 5 18 10 8 12 4 12 -15 0z"/>
<path d="M2415 7100 c-3 -6 1 -7 9 -4 18 7 21 14 7 14 -6 0 -13 -4 -16 -10z"/>
<path d="M2350 7070 c-19 -11 -30 -19 -25 -19 6 0 26 8 45 19 19 11 31 19 25
19 -5 0 -26 -8 -45 -19z"/>
<path d="M6890 7064 c-160 -20 -265 -46 -274 -70 -7 -18 8 -49 27 -57 7 -2 55
6 107 19 178 45 409 49 550 8 71 -20 80 -28 71 -62 -7 -26 -11 -27 -87 -32
-78 -5 -79 -5 -30 -12 95 -15 145 -10 171 16 31 31 41 71 25 101 -27 51 -176
86 -380 90 -80 2 -161 1 -180 -1z"/>
<path d="M6232 7030 c0 -14 2 -19 5 -12 2 6 2 18 0 25 -3 6 -5 1 -5 -13z"/>
<path d="M2190 7000 c-8 -5 -10 -10 -5 -10 6 0 17 5 25 10 8 5 11 10 5 10 -5
0 -17 -5 -25 -10z"/>
<path d="M6222 6980 c0 -14 2 -19 5 -12 2 6 2 18 0 25 -3 6 -5 1 -5 -13z"/>
<path d="M7143 6873 c9 -2 23 -2 30 0 6 3 -1 5 -18 5 -16 0 -22 -2 -12 -5z"/>
<path d="M4780 6844 c-62 -44 -98 -85 -143 -163 -46 -77 -86 -199 -89 -265 -2
-54 -14 -44 -28 24 -7 33 -20 65 -28 69 -16 9 -13 37 13 151 3 14 -3 3 -15
-23 -11 -26 -23 -73 -27 -105 -4 -42 -14 -67 -36 -94 -75 -94 -24 -238 99
-278 107 -36 224 56 224 175 0 57 -21 98 -60 122 -41 24 -44 42 -21 103 27 71
58 113 106 145 35 24 47 26 100 21 65 -5 186 -23 223 -31 12 -3 22 -1 22 4 0
5 -14 12 -30 16 -17 4 -28 11 -24 16 3 5 0 9 -5 9 -6 0 -11 -6 -12 -12 0 -7
-7 9 -14 36 -8 27 -20 56 -29 64 -13 13 -13 11 -1 -24 19 -56 8 -73 -22 -35
-14 17 -33 31 -43 31 -11 0 -24 8 -29 18 -6 9 -11 13 -11 9 0 -4 -15 3 -33 17
-40 31 -42 31 -87 0z m-64 -589 c-21 -38 -64 -65 -103 -64 l-28 1 31 7 c45 11
82 41 96 79 7 18 14 28 17 21 2 -7 -4 -27 -13 -44z"/>
<path d="M5147 6824 c-4 -4 -4 -10 -2 -14 6 -10 45 0 45 11 0 10 -33 12 -43 3z"/>
<path d="M4151 6724 c-12 -15 -21 -32 -21 -38 1 -11 24 15 41 47 14 25 3 21
-20 -9z"/>
<path d="M4526 6723 c-6 -14 -5 -15 5 -6 7 7 10 15 7 18 -3 3 -9 -2 -12 -12z"/>
<path d="M4740 6663 c-35 -39 -64 -98 -74 -148 -6 -34 -10 -40 41 70 13 28 35
65 49 83 36 44 24 41 -16 -5z"/>
<path d="M1842 6610 c0 -19 2 -27 5 -17 2 9 2 25 0 35 -3 9 -5 1 -5 -18z"/>
<path d="M5334 6618 l-19 -23 23 19 c21 18 27 26 19 26 -2 0 -12 -10 -23 -22z"/>
<path d="M5286 6544 c-9 -24 -2 -26 12 -4 7 11 8 20 3 20 -5 0 -12 -7 -15 -16z"/>
<path d="M7098 6550 c17 -19 15 -40 -5 -64 -18 -21 -18 -21 5 -2 26 23 28 49
5 67 -15 11 -16 11 -5 -1z"/>
<path d="M1852 6515 c0 -16 2 -22 5 -12 2 9 2 23 0 30 -3 6 -5 -1 -5 -18z"/>
<path d="M6460 6459 c0 -5 5 -7 10 -4 6 3 10 8 10 11 0 2 -4 4 -10 4 -5 0 -10
-5 -10 -11z"/>
<path d="M1862 6435 c0 -16 2 -22 5 -12 2 9 2 23 0 30 -3 6 -5 -1 -5 -18z"/>
<path d="M1872 6360 c0 -14 4 -38 8 -55 7 -27 8 -27 8 -5 0 14 -4 39 -8 55 -7
27 -8 27 -8 5z"/>
<path d="M1001 6344 c0 -11 3 -14 6 -6 3 7 2 16 -1 19 -3 4 -6 -2 -5 -13z"/>
<path d="M2170 6017 c0 -3 26 -11 58 -18 45 -9 53 -13 37 -20 -11 -4 -14 -8
-6 -8 7 -1 23 -12 35 -24 11 -13 48 -32 81 -42 33 -10 63 -23 67 -29 4 -6 8 0
8 13 0 45 10 15 46 -140 70 -297 84 -364 85 -414 1 -44 4 -36 25 65 22 111 94
521 94 537 0 4 -17 9 -38 11 -20 1 -118 15 -217 31 -243 40 -275 44 -275 38z"/>
<path d="M3270 5880 c8 -5 28 -10 44 -10 39 0 30 6 -19 13 -27 4 -35 3 -25 -3z"/>
<path d="M3216 5865 c-11 -8 -18 -17 -15 -19 2 -2 15 4 28 15 27 22 15 26 -13
4z"/>
<path d="M2111 5854 c0 -11 3 -14 6 -6 3 7 2 16 -1 19 -3 4 -6 -2 -5 -13z"/>
<path d="M3363 5863 c9 -2 25 -2 35 0 9 3 1 5 -18 5 -19 0 -27 -2 -17 -5z"/>
<path d="M3433 5853 c9 -2 25 -2 35 0 9 3 1 5 -18 5 -19 0 -27 -2 -17 -5z"/>
<path d="M3518 5843 c6 -2 18 -2 25 0 6 3 1 5 -13 5 -14 0 -19 -2 -12 -5z"/>
<path d="M3583 5833 c9 -2 25 -2 35 0 9 3 1 5 -18 5 -19 0 -27 -2 -17 -5z"/>
<path d="M3186 5815 c-3 -9 -6 -24 -5 -33 0 -9 5 -4 10 12 9 32 6 48 -5 21z"/>
<path d="M3268 5823 c6 -2 18 -2 25 0 6 3 1 5 -13 5 -14 0 -19 -2 -12 -5z"/>
<path d="M3648 5823 c7 -3 16 -2 19 1 4 3 -2 6 -13 5 -11 0 -14 -3 -6 -6z"/>
<path d="M3338 5813 c6 -2 18 -2 25 0 6 3 1 5 -13 5 -14 0 -19 -2 -12 -5z"/>
<path d="M3692 5809 c10 -5 22 -17 27 -27 6 -9 11 -12 11 -5 0 15 -28 43 -43
43 -7 0 -4 -5 5 -11z"/>
<path d="M3921 5815 c1 -19 18 -51 18 -35 0 8 -4 22 -9 30 -5 8 -9 11 -9 5z"/>
<path d="M3403 5803 c9 -2 25 -2 35 0 9 3 1 5 -18 5 -19 0 -27 -2 -17 -5z"/>
<path d="M3483 5793 c9 -2 23 -2 30 0 6 3 -1 5 -18 5 -16 0 -22 -2 -12 -5z"/>
<path d="M3226 5749 c-4 -23 -5 -44 -2 -46 2 -2 7 14 11 37 4 23 5 43 2 46 -2
3 -7 -14 -11 -37z"/>
<path d="M3558 5783 c7 -3 16 -2 19 1 4 3 -2 6 -13 5 -11 0 -14 -3 -6 -6z"/>
<path d="M3618 5773 c7 -3 16 -2 19 1 4 3 -2 6 -13 5 -11 0 -14 -3 -6 -6z"/>
<path d="M3172 5735 c0 -16 2 -22 5 -12 2 9 2 23 0 30 -3 6 -5 -1 -5 -18z"/>
<path d="M3909 5744 c-7 -9 -54 -45 -103 -81 -50 -35 -94 -70 -97 -76 -4 -7
-17 -61 -28 -122 -43 -221 -47 -224 -262 -189 -55 8 -109 14 -122 12 -27 -4
213 -38 266 -38 79 0 93 22 127 205 13 66 27 126 33 133 5 7 52 42 103 77 51
36 96 70 99 76 12 18 -1 20 -16 3z"/>
<path d="M3136 5545 c-15 -86 -25 -160 -22 -163 4 -3 6 -1 6 4 0 5 11 74 25
153 15 79 24 148 22 154 -1 5 -15 -61 -31 -148z"/>
<path d="M3212 5670 c0 -14 2 -19 5 -12 2 6 2 18 0 25 -3 6 -5 1 -5 -13z"/>
<path d="M3202 5620 c0 -14 2 -19 5 -12 2 6 2 18 0 25 -3 6 -5 1 -5 -13z"/>
<path d="M3182 5525 c-6 -39 -14 -84 -18 -101 -7 -38 22 -75 59 -73 17 1 15 3
-9 10 -18 5 -35 16 -38 25 -3 9 1 54 10 101 8 46 14 89 11 96 -2 6 -9 -20 -15
-58z"/>
<path d="M3551 5489 c-126 -85 -148 -93 -185 -61 l-21 17 20 -23 c15 -19 27
-23 52 -19 36 6 239 138 211 137 -2 0 -36 -23 -77 -51z"/>
<path d="M3631 5475 c-7 -33 -17 -82 -23 -108 -5 -27 -16 -51 -24 -54 -8 -3
-84 5 -170 17 -85 12 -157 20 -160 18 -2 -3 70 -15 161 -28 150 -21 168 -22
182 -8 15 16 57 193 50 213 -2 5 -10 -17 -16 -50z"/>
<path d="M5718 5503 c7 -3 16 -2 19 1 4 3 -2 6 -13 5 -11 0 -14 -3 -6 -6z"/>
<path d="M5398 5493 c7 -3 16 -2 19 1 4 3 -2 6 -13 5 -11 0 -14 -3 -6 -6z"/>
<path d="M5568 5473 c7 -3 16 -2 19 1 4 3 -2 6 -13 5 -11 0 -14 -3 -6 -6z"/>
<path d="M5658 5463 c7 -3 16 -2 19 1 4 3 -2 6 -13 5 -11 0 -14 -3 -6 -6z"/>
<path d="M5748 5453 c6 -2 18 -2 25 0 6 3 1 5 -13 5 -14 0 -19 -2 -12 -5z"/>
<path d="M3120 5361 c0 -31 80 -72 135 -70 11 0 -5 7 -35 14 -35 9 -62 22 -77
40 -13 14 -23 21 -23 16z"/>
<path d="M5618 5113 c7 -3 16 -2 19 1 4 3 -2 6 -13 5 -11 0 -14 -3 -6 -6z"/>
<path d="M2020 5094 c0 -6 7 -19 16 -30 14 -18 14 -18 3 6 -14 31 -19 36 -19
24z"/>
<path d="M2094 5006 c11 -9 24 -16 30 -16 12 0 7 5 -24 19 -24 11 -24 11 -6
-3z"/>
<path d="M2059 4911 c-22 -21 -39 -45 -39 -52 0 -8 9 0 19 17 10 17 32 40 47
52 16 12 25 22 20 22 -4 0 -26 -17 -47 -39z"/>
<path d="M3098 4933 c12 -2 32 -2 45 0 12 2 2 4 -23 4 -25 0 -35 -2 -22 -4z"/>
<path d="M3035 4907 c-8 -13 -17 -39 -20 -58 -5 -29 -3 -27 9 11 9 25 23 50
33 57 9 7 12 13 5 13 -6 0 -18 -10 -27 -23z"/>
<path d="M3193 4923 c9 -2 25 -2 35 0 9 3 1 5 -18 5 -19 0 -27 -2 -17 -5z"/>
<path d="M1953 4877 c12 -24 23 -40 25 -35 4 8 -36 78 -43 78 -3 0 6 -19 18
-43z"/>
<path d="M2330 4906 c0 -8 4 -17 9 -20 5 -4 7 3 4 14 -6 23 -13 26 -13 6z"/>
<path d="M3263 4913 c9 -2 25 -2 35 0 9 3 1 5 -18 5 -19 0 -27 -2 -17 -5z"/>
<path d="M3338 4903 c6 -2 18 -2 25 0 6 3 1 5 -13 5 -14 0 -19 -2 -12 -5z"/>
<path d="M3398 4893 c6 -2 18 -2 25 0 6 3 1 5 -13 5 -14 0 -19 -2 -12 -5z"/>
<path d="M3108 4883 c7 -3 16 -2 19 1 4 3 -2 6 -13 5 -11 0 -14 -3 -6 -6z"/>
<path d="M3453 4883 c9 -2 25 -2 35 0 9 3 1 5 -18 5 -19 0 -27 -2 -17 -5z"/>
<path d="M3153 4873 c9 -2 23 -2 30 0 6 3 -1 5 -18 5 -16 0 -22 -2 -12 -5z"/>
<path d="M3537 4865 c17 -7 33 -22 36 -32 4 -15 5 -15 6 -1 1 19 -35 48 -59
48 -8 -1 -1 -7 17 -15z"/>
<path d="M3228 4863 c6 -2 18 -2 25 0 6 3 1 5 -13 5 -14 0 -19 -2 -12 -5z"/>
<path d="M3283 4853 c9 -2 25 -2 35 0 9 3 1 5 -18 5 -19 0 -27 -2 -17 -5z"/>
<path d="M3060 4847 c0 -3 -16 -93 -35 -198 l-35 -193 22 -23 c12 -13 29 -23
37 -22 11 0 10 3 -4 9 -47 18 -47 26 -10 230 20 106 33 195 30 198 -3 3 -5 2
-5 -1z"/>
<path d="M3353 4843 c9 -2 25 -2 35 0 9 3 1 5 -18 5 -19 0 -27 -2 -17 -5z"/>
<path d="M2011 4824 c0 -11 3 -14 6 -6 3 7 2 16 -1 19 -3 4 -6 -2 -5 -13z"/>
<path d="M3433 4833 c9 -2 23 -2 30 0 6 3 -1 5 -18 5 -16 0 -22 -2 -12 -5z"/>
<path d="M3775 4821 c-3 -12 -52 -53 -108 -93 -56 -39 -105 -74 -109 -77 -4
-4 -20 -65 -34 -136 -33 -161 -36 -170 -73 -190 -28 -14 -43 -13 -177 5 -80
12 -154 20 -163 18 -9 -2 59 -14 150 -27 233 -33 229 -36 274 189 14 68 30
129 35 134 5 5 49 37 96 70 84 59 134 109 122 122 -4 3 -9 -4 -13 -15z"/>
<path d="M3488 4823 c7 -3 16 -2 19 1 4 3 -2 6 -13 5 -11 0 -14 -3 -6 -6z"/>
<path d="M2972 4631 c-26 -139 -31 -184 -22 -198 10 -16 10 -16 5 3 -3 12 8
97 25 188 18 92 30 171 28 177 -2 6 -18 -71 -36 -170z"/>
<path d="M3405 4554 c-82 -57 -147 -94 -164 -94 -6 0 -22 12 -37 28 -22 23
-24 24 -15 5 17 -34 47 -46 82 -34 43 15 241 152 217 151 -2 0 -39 -25 -83
-56z"/>
<path d="M3481 4554 c-5 -22 -12 -55 -16 -74 -20 -107 -22 -110 -69 -110 -24
0 -103 9 -176 20 -73 12 -138 19 -144 16 -6 -2 -4 -5 4 -5 8 -1 73 -10 144
-21 168 -26 212 -26 226 0 11 21 51 203 45 208 -2 2 -8 -13 -14 -34z"/>
<path d="M3160 4540 c6 -11 13 -20 16 -20 2 0 0 9 -6 20 -6 11 -13 20 -16 20
-2 0 0 -9 6 -20z"/>
<path d="M5548 4483 c7 -3 16 -2 19 1 4 3 -2 6 -13 5 -11 0 -14 -3 -6 -6z"/>
<path d="M2960 4402 c0 -19 47 -44 92 -48 l43 -4 -45 11 c-25 6 -55 20 -67 32
-13 11 -23 15 -23 9z"/>
<path d="M2357 4373 c-3 -5 -8 -23 -12 -41 -3 -18 -10 -30 -13 -28 -4 2 -8
-17 -10 -42 -3 -63 6 -49 27 42 17 71 19 87 8 69z"/>
<path d="M5508 4323 c7 -3 16 -2 19 1 4 3 -2 6 -13 5 -11 0 -14 -3 -6 -6z"/>
<path d="M6340 4195 c-6 -8 -10 -19 -8 -24 1 -6 8 1 15 14 13 28 11 31 -7 10z"/>
<path d="M2869 3971 c-19 -20 -29 -39 -28 -58 1 -26 2 -26 9 7 14 58 43 73
130 67 56 -4 65 -3 35 3 -78 17 -114 12 -146 -19z"/>
<path d="M3073 3973 c9 -2 25 -2 35 0 9 3 1 5 -18 5 -19 0 -27 -2 -17 -5z"/>
<path d="M3165 3959 c22 -4 51 -8 65 -7 16 0 11 3 -15 9 -22 4 -51 8 -65 7
-16 0 -11 -3 15 -9z"/>
<path d="M3273 3943 c9 -2 25 -2 35 0 9 3 1 5 -18 5 -19 0 -27 -2 -17 -5z"/>
<path d="M2903 3928 c-11 -14 -54 -221 -52 -253 0 -11 13 40 27 113 17 84 33
136 42 142 8 5 10 10 4 10 -6 0 -16 -6 -21 -12z"/>
<path d="M2958 3933 c12 -2 30 -2 40 0 9 3 -1 5 -23 4 -22 0 -30 -2 -17 -4z"/>
<path d="M3350 3929 c14 -5 31 -17 38 -26 10 -14 12 -15 12 -2 0 16 -40 40
-63 38 -7 0 -1 -5 13 -10z"/>
<path d="M3033 3923 c9 -2 25 -2 35 0 9 3 1 5 -18 5 -19 0 -27 -2 -17 -5z"/>
<path d="M3103 3913 c9 -2 23 -2 30 0 6 3 -1 5 -18 5 -16 0 -22 -2 -12 -5z"/>
<path d="M3163 3903 c9 -2 25 -2 35 0 9 3 1 5 -18 5 -19 0 -27 -2 -17 -5z"/>
<path d="M3233 3893 c9 -2 23 -2 30 0 6 3 -1 5 -18 5 -16 0 -22 -2 -12 -5z"/>
<path d="M3288 3883 c7 -3 16 -2 19 1 4 3 -2 6 -13 5 -11 0 -14 -3 -6 -6z"/>
<path d="M3601 3874 c0 -11 3 -14 6 -6 3 7 2 16 -1 19 -3 4 -6 -2 -5 -13z"/>
<path d="M2832 3855 c0 -16 2 -22 5 -12 2 9 2 23 0 30 -3 6 -5 -1 -5 -18z"/>
<path d="M3510 3794 c-41 -30 -86 -63 -99 -72 -20 -15 -28 -40 -52 -156 -16
-77 -36 -150 -44 -163 -28 -41 -53 -44 -212 -23 -264 36 -265 36 -295 70 -34
37 -35 52 -3 215 14 72 24 137 24 145 -2 24 -57 -251 -58 -288 -1 -40 22 -88
50 -102 19 -10 245 -49 379 -65 64 -8 102 4 125 38 9 14 29 89 45 167 16 79
31 144 32 145 2 1 45 30 96 65 87 59 114 81 95 79 -4 0 -42 -25 -83 -55z"/>
<path d="M1911 3758 c-1 -10 11 -30 27 -46 15 -15 19 -19 10 -7 -9 11 -21 31
-27 45 -7 17 -10 20 -10 8z"/>
<path d="M3958 3763 c7 -3 16 -2 19 1 4 3 -2 6 -13 5 -11 0 -14 -3 -6 -6z"/>
<path d="M4158 3733 c7 -3 16 -2 19 1 4 3 -2 6 -13 5 -11 0 -14 -3 -6 -6z"/>
<path d="M4618 3663 c7 -3 16 -2 19 1 4 3 -2 6 -13 5 -11 0 -14 -3 -6 -6z"/>
<path d="M3240 3609 c-146 -98 -173 -106 -216 -61 -15 15 -21 18 -14 7 44 -64
73 -60 203 25 90 58 119 80 105 80 -2 0 -37 -23 -78 -51z"/>
<path d="M4698 3653 c7 -3 16 -2 19 1 4 3 -2 6 -13 5 -11 0 -14 -3 -6 -6z"/>
<path d="M1949 3629 c-19 -16 -20 -18 -4 -10 34 17 51 31 39 31 -7 0 -22 -9
-35 -21z"/>
<path d="M2835 3605 c-3 -26 -4 -49 -2 -51 3 -3 8 16 12 41 3 26 4 49 2 51 -3
3 -8 -16 -12 -41z"/>
<path d="M4768 3643 c7 -3 16 -2 19 1 4 3 -2 6 -13 5 -11 0 -14 -3 -6 -6z"/>
<path d="M1829 3626 c13 -7 30 -24 37 -37 7 -13 13 -18 14 -11 0 17 -45 62
-62 62 -7 -1 -2 -7 11 -14z"/>
<path d="M3300 3543 c-12 -54 -23 -104 -25 -110 -6 -17 -56 -16 -195 2 -150
20 -211 34 -232 53 -10 8 -18 11 -18 5 0 -10 27 -25 64 -37 33 -11 285 -46
330 -46 24 0 48 6 54 13 12 15 56 206 49 213 -3 3 -15 -39 -27 -93z"/>
<path d="M4828 3633 c7 -3 16 -2 19 1 4 3 -2 6 -13 5 -11 0 -14 -3 -6 -6z"/>
<path d="M4898 3623 c7 -3 16 -2 19 1 4 3 -2 6 -13 5 -11 0 -14 -3 -6 -6z"/>
<path d="M4958 3613 c6 -2 18 -2 25 0 6 3 1 5 -13 5 -14 0 -19 -2 -12 -5z"/>
<path d="M5023 3603 c9 -2 23 -2 30 0 6 3 -1 5 -18 5 -16 0 -22 -2 -12 -5z"/>
<path d="M4788 3593 c7 -3 16 -2 19 1 4 3 -2 6 -13 5 -11 0 -14 -3 -6 -6z"/>
<path d="M3818 3583 c7 -3 16 -2 19 1 4 3 -2 6 -13 5 -11 0 -14 -3 -6 -6z"/>
<path d="M4848 3583 c7 -3 16 -2 19 1 4 3 -2 6 -13 5 -11 0 -14 -3 -6 -6z"/>
<path d="M4918 3573 c7 -3 16 -2 19 1 4 3 -2 6 -13 5 -11 0 -14 -3 -6 -6z"/>
<path d="M1911 3554 c0 -11 3 -14 6 -6 3 7 2 16 -1 19 -3 4 -6 -2 -5 -13z"/>
<path d="M4978 3563 c6 -2 18 -2 25 0 6 3 1 5 -13 5 -14 0 -19 -2 -12 -5z"/>
<path d="M5048 3553 c7 -3 16 -2 19 1 4 3 -2 6 -13 5 -11 0 -14 -3 -6 -6z"/>
<path d="M2821 3524 c0 -11 3 -14 6 -6 3 7 2 16 -1 19 -3 4 -6 -2 -5 -13z"/>
<path d="M4198 3523 c7 -3 16 -2 19 1 4 3 -2 6 -13 5 -11 0 -14 -3 -6 -6z"/>
<path d="M4408 3493 c7 -3 16 -2 19 1 4 3 -2 6 -13 5 -11 0 -14 -3 -6 -6z"/>
<path d="M4148 3483 c7 -3 16 -2 19 1 4 3 -2 6 -13 5 -11 0 -14 -3 -6 -6z"/>
<path d="M4468 3483 c7 -3 16 -2 19 1 4 3 -2 6 -13 5 -11 0 -14 -3 -6 -6z"/>
<path d="M5819 3473 c-13 -16 -12 -17 4 -4 9 7 17 15 17 17 0 8 -8 3 -21 -13z"/>
<path d="M4528 3473 c7 -3 16 -2 19 1 4 3 -2 6 -13 5 -11 0 -14 -3 -6 -6z"/>
<path d="M4658 3453 c7 -3 16 -2 19 1 4 3 -2 6 -13 5 -11 0 -14 -3 -6 -6z"/>
<path d="M4718 3443 c7 -3 16 -2 19 1 4 3 -2 6 -13 5 -11 0 -14 -3 -6 -6z"/>
<path d="M4788 3433 c6 -2 18 -2 25 0 6 3 1 5 -13 5 -14 0 -19 -2 -12 -5z"/>
<path d="M5764 3403 c-15 -20 -23 -33 -16 -29 13 8 56 66 49 66 -3 0 -17 -17
-33 -37z"/>
<path d="M4853 3423 c9 -2 23 -2 30 0 6 3 -1 5 -18 5 -16 0 -22 -2 -12 -5z"/>
<path d="M4923 3413 c9 -2 23 -2 30 0 6 3 -1 5 -18 5 -16 0 -22 -2 -12 -5z"/>
<path d="M4978 3403 c6 -2 18 -2 25 0 6 3 1 5 -13 5 -14 0 -19 -2 -12 -5z"/>
<path d="M6362 3370 c0 -19 2 -27 5 -17 2 9 2 25 0 35 -3 9 -5 1 -5 -18z"/>
<path d="M4808 3383 c6 -2 18 -2 25 0 6 3 1 5 -13 5 -14 0 -19 -2 -12 -5z"/>
<path d="M4883 3373 c9 -2 23 -2 30 0 6 3 -1 5 -18 5 -16 0 -22 -2 -12 -5z"/>
<path d="M4953 3363 c9 -2 25 -2 35 0 9 3 1 5 -18 5 -19 0 -27 -2 -17 -5z"/>
<path d="M4048 3343 c7 -3 16 -2 19 1 4 3 -2 6 -13 5 -11 0 -14 -3 -6 -6z"/>
<path d="M4178 3323 c7 -3 16 -2 19 1 4 3 -2 6 -13 5 -11 0 -14 -3 -6 -6z"/>
<path d="M4238 3313 c7 -3 16 -2 19 1 4 3 -2 6 -13 5 -11 0 -14 -3 -6 -6z"/>
<path d="M1961 3299 c-1 -9 9 -24 22 -35 22 -19 22 -19 6 1 -9 11 -19 27 -22
35 -5 13 -6 13 -6 -1z"/>
<path d="M4298 3303 c6 -2 18 -2 25 0 6 3 1 5 -13 5 -14 0 -19 -2 -12 -5z"/>
<path d="M4992 3258 c-7 -28 -11 -53 -8 -55 2 -2 9 19 16 47 7 28 10 53 8 55
-3 3 -10 -18 -16 -47z"/>
<path d="M4358 3293 c6 -2 18 -2 25 0 6 3 1 5 -13 5 -14 0 -19 -2 -12 -5z"/>
<path d="M4428 3283 c7 -3 16 -2 19 1 4 3 -2 6 -13 5 -11 0 -14 -3 -6 -6z"/>
<path d="M4178 3273 c7 -3 16 -2 19 1 4 3 -2 6 -13 5 -11 0 -14 -3 -6 -6z"/>
<path d="M1900 3260 c-9 -6 -10 -10 -3 -10 6 0 15 5 18 10 8 12 4 12 -15 0z"/>
<path d="M4548 3263 c6 -2 18 -2 25 0 6 3 1 5 -13 5 -14 0 -19 -2 -12 -5z"/>
<path d="M4608 3253 c6 -2 18 -2 25 0 6 3 1 5 -13 5 -14 0 -19 -2 -12 -5z"/>
<path d="M4378 3243 c7 -3 16 -2 19 1 4 3 -2 6 -13 5 -11 0 -14 -3 -6 -6z"/>
<path d="M4678 3243 c7 -3 16 -2 19 1 4 3 -2 6 -13 5 -11 0 -14 -3 -6 -6z"/>
<path d="M4438 3233 c7 -3 16 -2 19 1 4 3 -2 6 -13 5 -11 0 -14 -3 -6 -6z"/>
<path d="M4728 3233 c6 -2 18 -2 25 0 6 3 1 5 -13 5 -14 0 -19 -2 -12 -5z"/>
<path d="M1905 3207 c10 -15 20 -25 23 -22 3 3 -5 16 -17 28 l-23 22 17 -28z"/>
<path d="M1970 3209 c-16 -29 -9 -29 17 -2 16 16 18 23 8 23 -8 0 -19 -9 -25
-21z"/>
<path d="M4798 3223 c6 -2 18 -2 25 0 6 3 1 5 -13 5 -14 0 -19 -2 -12 -5z"/>
<path d="M4863 3213 c9 -2 23 -2 30 0 6 3 -1 5 -18 5 -16 0 -22 -2 -12 -5z"/>
<path d="M1122 3190 c0 -14 2 -19 5 -12 2 6 2 18 0 25 -3 6 -5 1 -5 -13z"/>
<path d="M4923 3203 c9 -2 23 -2 30 0 6 3 -1 5 -18 5 -16 0 -22 -2 -12 -5z"/>
<path d="M4688 3193 c6 -2 18 -2 25 0 6 3 1 5 -13 5 -14 0 -19 -2 -12 -5z"/>
<path d="M4758 3183 c7 -3 16 -2 19 1 4 3 -2 6 -13 5 -11 0 -14 -3 -6 -6z"/>
<path d="M4818 3173 c6 -2 18 -2 25 0 6 3 1 5 -13 5 -14 0 -19 -2 -12 -5z"/>
<path d="M4883 3163 c9 -2 23 -2 30 0 6 3 -1 5 -18 5 -16 0 -22 -2 -12 -5z"/>
<path d="M4955 3160 c-3 -5 1 -10 9 -10 9 0 16 5 16 10 0 6 -4 10 -9 10 -6 0
-13 -4 -16 -10z"/>
<path d="M1123 3120 c0 -25 2 -35 4 -22 2 12 2 32 0 45 -2 12 -4 2 -4 -23z"/>
<path d="M4972 3115 c0 -16 2 -22 5 -12 2 9 2 23 0 30 -3 6 -5 -1 -5 -18z"/>
<path d="M5016 3071 c-20 -22 -21 -38 -1 -21 11 9 20 8 44 -10 26 -18 30 -27
28 -59 -1 -22 -5 -37 -9 -34 -5 2 -8 0 -8 -6 0 -13 -89 -74 -107 -74 -8 0 -10
-4 -4 -10 10 -10 48 8 144 69 37 24 73 44 81 44 7 0 13 12 13 30 0 17 -3 26
-7 20 -4 -7 -27 1 -66 23 -82 46 -90 48 -108 28z"/>
<path d="M4962 3040 c0 -19 2 -27 5 -17 2 9 2 25 0 35 -3 9 -5 1 -5 -18z"/>
<path d="M1802 2954 c-24 -17 -29 -53 -10 -72 7 -7 29 -12 49 -12 38 0 49 12
49 50 0 19 -35 50 -55 50 -6 0 -21 -7 -33 -16z m63 -10 c9 -9 15 -26 13 -38
-2 -17 -10 -21 -37 -21 -45 0 -62 26 -37 54 23 25 39 26 61 5z"/>
<path d="M4942 2905 c0 -16 2 -22 5 -12 2 9 2 23 0 30 -3 6 -5 -1 -5 -18z"/>
<path d="M2338 2753 c6 -2 18 -2 25 0 6 3 1 5 -13 5 -14 0 -19 -2 -12 -5z"/>
<path d="M2605 2710 c127 -21 322 -55 435 -75 113 -19 306 -51 430 -70 467
-73 675 -107 1010 -165 190 -32 449 -75 575 -95 127 -20 273 -45 325 -56 53
-11 148 -22 215 -24 l120 -4 -118 9 c-64 5 -163 18 -220 30 -56 12 -239 43
-407 70 -168 27 -465 77 -660 110 -195 33 -485 81 -645 106 -159 24 -407 65
-550 89 -143 25 -278 47 -300 50 -22 4 -119 20 -215 36 -96 16 -186 29 -200
28 -14 -1 79 -18 205 -39z"/>
<path d="M1980 2710 c8 -5 20 -10 25 -10 6 0 3 5 -5 10 -8 5 -19 10 -25 10 -5
0 -3 -5 5 -10z"/>
<path d="M1340 2638 c0 -7 10 -14 21 -15 12 -1 20 -1 18 0 -2 2 -12 9 -21 16
-15 11 -18 11 -18 -1z"/>
<path d="M1980 2630 c-11 -7 -11 -10 -2 -10 7 0 10 -4 7 -10 -3 -5 -1 -10 5
-10 7 0 9 -7 6 -17 -6 -15 -4 -15 14 2 22 20 28 44 6 26 -12 -10 -15 -8 -18 8
-2 16 -7 18 -18 11z"/>
<path d="M1295 2610 c-3 -5 -1 -10 4 -10 6 0 11 5 11 10 0 6 -2 10 -4 10 -3 0
-8 -4 -11 -10z"/>
<path d="M6252 2580 c0 -14 2 -19 5 -12 2 6 2 18 0 25 -3 6 -5 1 -5 -13z"/>
<path d="M3658 2563 c7 -3 16 -2 19 1 4 3 -2 6 -13 5 -11 0 -14 -3 -6 -6z"/>
<path d="M1448 2553 c7 -3 16 -2 19 1 4 3 -2 6 -13 5 -11 0 -14 -3 -6 -6z"/>
<path d="M1928 2536 c-11 -8 -18 -26 -18 -44 0 -27 4 -32 34 -38 19 -3 39 -3
45 1 17 10 13 60 -7 78 -22 20 -31 21 -54 3z m46 -12 c18 -17 19 -24 10 -48
-12 -31 -64 -12 -64 24 0 16 18 40 31 40 4 0 15 -7 23 -16z"/>
<path d="M1827 2526 c-5 -11 -3 -24 4 -30 8 -8 13 -8 16 2 3 6 8 10 12 8 4 -3
8 1 8 9 0 11 -4 12 -13 4 -9 -7 -13 -5 -16 8 -3 17 -4 17 -11 -1z"/>
<path d="M1880 2531 c0 -6 4 -13 10 -16 6 -3 7 1 4 9 -7 18 -14 21 -14 7z"/>
<path d="M1450 2520 c0 -5 5 -10 11 -10 5 0 7 5 4 10 -3 6 -8 10 -11 10 -2 0
-4 -4 -4 -10z"/>
<path d="M2458 2523 c7 -3 16 -2 19 1 4 3 -2 6 -13 5 -11 0 -14 -3 -6 -6z"/>
<path d="M2495 2515 c14 -6 784 -135 803 -135 46 0 -29 14 -387 74 -351 59
-448 73 -416 61z"/>
<path d="M1717 2499 c7 -7 15 -10 18 -7 3 3 -2 9 -12 12 -14 6 -15 5 -6 -5z"/>
<path d="M1561 2481 c-9 -6 -10 -11 -2 -15 13 -8 31 1 31 15 0 11 -11 11 -29
0z"/>
<path d="M2918 2413 c7 -3 16 -2 19 1 4 3 -2 6 -13 5 -11 0 -14 -3 -6 -6z"/>
<path d="M2983 2403 c9 -2 25 -2 35 0 9 3 1 5 -18 5 -19 0 -27 -2 -17 -5z"/>
<path d="M3470 2350 c85 -15 205 -35 265 -45 61 -9 170 -27 244 -41 74 -13
146 -23 160 -23 34 2 31 2 -209 43 -318 55 -579 96 -598 95 -9 0 53 -13 138
-29z"/>
<path d="M5856 2334 c-21 -25 -61 -58 -90 -74 -28 -17 -46 -30 -40 -30 30 0
140 88 165 133 15 26 7 20 -35 -29z"/>
<path d="M6201 2274 c0 -11 3 -14 6 -6 3 7 2 16 -1 19 -3 4 -6 -2 -5 -13z"/>
<path d="M4183 2233 c9 -2 23 -2 30 0 6 3 -1 5 -18 5 -16 0 -22 -2 -12 -5z"/>
<path d="M4238 2223 c6 -2 18 -2 25 0 6 3 1 5 -13 5 -14 0 -19 -2 -12 -5z"/>
<path d="M4293 2213 c9 -2 23 -2 30 0 6 3 -1 5 -18 5 -16 0 -22 -2 -12 -5z"/>
<path d="M5288 2013 c7 -3 16 -2 19 1 4 3 -2 6 -13 5 -11 0 -14 -3 -6 -6z"/>
</g>
</svg>
